<?xml version="1.0" encoding="UTF-8"?>
<svg id="Layer_2" data-name="Layer 2" xmlns="http://www.w3.org/2000/svg" viewBox="0 0 147.69 123.36">
  <defs>
    <style>
      .cls-1 {
        fill: #ede20f;
      }

      .cls-1, .cls-2, .cls-3, .cls-4 {
        stroke-width: 0px;
      }

      .cls-2 {
        fill: #dbdb45;
      }

      .cls-3 {
        fill: #333;
      }

      .cls-4 {
        fill: #5b5b14;
      }
    </style>
  </defs>
  <g id="Layer_1-2" data-name="Layer 1">
    <g>
      <rect class="cls-4" x="23.52" width="100.39" height="100.39"/>
      <g>
        <path class="cls-1" d="M142.1,36.52c-3.01,0-5.47-2.29-5.47-5.11s2.45-5.11,5.47-5.11,5.46,2.29,5.46,5.11-2.45,5.11-5.46,5.11Z"/>
        <path class="cls-3" d="M142.1,26.42c2.94,0,5.34,2.24,5.34,4.99s-2.4,4.99-5.34,4.99-5.34-2.24-5.34-4.99,2.4-4.99,5.34-4.99M142.1,26.17c-3.09,0-5.59,2.35-5.59,5.24s2.5,5.24,5.59,5.24,5.59-2.35,5.59-5.24-2.5-5.24-5.59-5.24h0Z"/>
      </g>
      <path class="cls-2" d="M136.98,44.83v68.64H10.46v-13.46H.56v23.35h146.32V44.83h-9.9Z"/>
      <g>
        <path class="cls-1" d="M5.59,91.69c-3.01,0-5.46-2.29-5.46-5.11s2.45-5.11,5.46-5.11,5.46,2.29,5.46,5.11-2.45,5.11-5.46,5.11Z"/>
        <path class="cls-3" d="M5.59,81.59c2.94,0,5.34,2.24,5.34,4.99s-2.4,4.99-5.34,4.99-5.34-2.24-5.34-4.99,2.4-4.99,5.34-4.99M5.59,81.34c-3.09,0-5.59,2.35-5.59,5.24s2.5,5.24,5.59,5.24,5.59-2.35,5.59-5.24-2.5-5.24-5.59-5.24h0Z"/>
      </g>
      <g>
        <ellipse class="cls-1" cx="37.32" cy="88.41" rx="5.59" ry="5.24"/>
        <ellipse class="cls-1" cx="61.61" cy="88.41" rx="5.59" ry="5.24"/>
        <ellipse class="cls-1" cx="85.89" cy="88.41" rx="5.59" ry="5.24"/>
        <ellipse class="cls-1" cx="110.18" cy="88.41" rx="5.59" ry="5.24"/>
        <ellipse class="cls-1" cx="37.32" cy="62.43" rx="5.59" ry="5.24"/>
        <ellipse class="cls-1" cx="61.61" cy="62.43" rx="5.59" ry="5.24"/>
        <ellipse class="cls-1" cx="110.18" cy="62.43" rx="5.59" ry="5.24"/>
        <ellipse class="cls-1" cx="61.61" cy="36.45" rx="5.59" ry="5.24"/>
        <ellipse class="cls-1" cx="110.18" cy="36.45" rx="5.59" ry="5.24"/>
        <ellipse class="cls-1" cx="61.61" cy="10.47" rx="5.59" ry="5.24"/>
      </g>
    </g>
  </g>
</svg>