<?xml version="1.0" encoding="UTF-8"?>
<svg id="Layer_2" data-name="Layer 2" xmlns="http://www.w3.org/2000/svg" viewBox="0 0 279.18 277.66">
  <defs>
    <style>
      .cls-1 {
        fill: #ee3097;
      }

      .cls-1, .cls-2, .cls-3 {
        stroke-width: 0px;
      }

      .cls-2 {
        fill: #021ca2;
      }

      .cls-3 {
        fill: #21f5f5;
      }
    </style>
  </defs>
  <g id="Layer_1-2" data-name="Layer 1">
    <g>
      <rect class="cls-2" x="42.39" y="42.4" width="192.85" height="192.85"/>
      <ellipse class="cls-1" cx="268.57" cy="103.17" rx="10.61" ry="9.94"/>
      <path class="cls-3" d="M277.63,77.68V0H0v277.66h277.63v-149.01h-18.77v130.24H18.77V18.77h240.08v58.91h18.77Z"/>
      <path class="cls-1" d="M159.77,138.46l-6.04,14.14h9.42v15.14c-1.91,1.09-4.22,1.88-6.88,2.38-2.66.5-5.41.75-8.26.75-4.91,0-9.42-.72-13.52-2.19-4.1-1.44-7.57-3.57-10.45-6.32-2.88-2.75-5.16-6.04-6.82-9.89-1.66-3.82-2.5-8.13-2.5-12.89,0-5.07.78-9.64,2.32-13.7,1.53-4.04,3.79-7.48,6.69-10.32,2.91-2.82,6.48-4.97,10.64-6.44,4.19-1.44,8.85-2.19,14.02-2.19,2.16,0,4.54.28,7.13.81,2.6.56,5.1,1.22,7.57,2,2.47.81,4.47,1.69,6.07,2.69l4.88-13.52c-3.41-1.91-7.48-3.5-12.2-4.76-4.72-1.25-9.82-1.88-15.33-1.88-6.26,0-12.2,1.06-17.83,3.13-5.63,2.1-10.57,5.19-14.89,9.32-4.29,4.13-7.73,9.23-10.26,15.27-2.53,6.07-3.82,13.01-3.82,20.84,0,6.51,1.13,12.45,3.38,17.83,2.25,5.38,5.47,10.07,9.64,14.02,4.19,3.97,9.2,7.07,15.08,9.32,5.88,2.25,12.55,3.38,19.96,3.38,2.6,0,5.38-.28,8.38-.88,3-.56,5.94-1.31,8.82-2.19,2.88-.88,5.41-1.88,7.63-3,2.22-1.13,3.97-2.22,5.32-3.32v-37.54h-18.15Z"/>
    </g>
  </g>
</svg>