<?xml version="1.0" encoding="UTF-8"?>
<svg id="Layer_2" data-name="Layer 2" xmlns="http://www.w3.org/2000/svg" viewBox="0 0 147.69 124.73">
  <defs>
    <style>
      .cls-1 {
        fill: #ede20f;
      }

      .cls-1, .cls-2, .cls-3, .cls-4, .cls-5 {
        stroke-width: 0px;
      }

      .cls-2 {
        fill: #fff812;
      }

      .cls-3 {
        fill: #dbdb45;
      }

      .cls-4 {
        fill: #333;
      }

      .cls-5 {
        fill: #5b5b14;
      }
    </style>
  </defs>
  <g id="Layer_1-2" data-name="Layer 1">
    <g>
      <g>
        <rect class="cls-5" x="23.52" y="1.37" width="100.39" height="100.39"/>
        <g>
          <path class="cls-1" d="M142.1,37.89c-3.01,0-5.47-2.29-5.47-5.11s2.45-5.11,5.47-5.11,5.46,2.29,5.46,5.11-2.45,5.11-5.46,5.11Z"/>
          <path class="cls-4" d="M142.1,27.79c2.94,0,5.34,2.24,5.34,4.99s-2.4,4.99-5.34,4.99-5.34-2.24-5.34-4.99,2.4-4.99,5.34-4.99M142.1,27.54c-3.09,0-5.59,2.35-5.59,5.24s2.5,5.24,5.59,5.24,5.59-2.35,5.59-5.24-2.5-5.24-5.59-5.24h0Z"/>
        </g>
        <path class="cls-3" d="M136.98,46.2v68.64H10.46v-13.46H.56v23.35h146.32V46.2h-9.9Z"/>
        <g>
          <path class="cls-1" d="M5.59,93.06c-3.01,0-5.46-2.29-5.46-5.11s2.45-5.11,5.46-5.11,5.46,2.29,5.46,5.11-2.45,5.11-5.46,5.11Z"/>
          <path class="cls-4" d="M5.59,82.95c2.94,0,5.34,2.24,5.34,4.99s-2.4,4.99-5.34,4.99-5.34-2.24-5.34-4.99,2.4-4.99,5.34-4.99M5.59,82.7c-3.09,0-5.59,2.35-5.59,5.24s2.5,5.24,5.59,5.24,5.59-2.35,5.59-5.24-2.5-5.24-5.59-5.24h0Z"/>
        </g>
      </g>
      <path class="cls-2" d="M82.43,100.99l7.03-16.21h.17l7.03,16.21h-3.56l-4.49-11.4,2.22-1.53-5.38,12.92h-3.03ZM87.23,95.35h4.68l1.08,2.58h-6.72l.95-2.58Z"/>
      <path class="cls-2" d="M24.2,45.6l7.03-16.21h.17l7.03,16.21h-3.56l-4.49-11.4,2.22-1.53-5.38,12.92h-3.03ZM29.01,39.97h4.68l1.08,2.58h-6.72l.95-2.58Z"/>
      <path class="cls-2" d="M109.53,16.21L116.56,0h.17l7.03,16.21h-3.56l-4.49-11.4,2.22-1.53-5.38,12.92h-3.03ZM114.34,10.57h4.68l1.08,2.58h-6.72l.95-2.58Z"/>
      <path class="cls-2" d="M84.52,29.25h3.07v12.63h7.33v2.97h-10.4v-15.59Z"/>
      <path class="cls-2" d="M53.1,57.73h3.07v10.22h7.33v2.4h-10.4v-12.63Z"/>
      <path class="cls-2" d="M120.99,61.99c-.59-.32-1.2-.59-1.81-.81s-1.19-.32-1.73-.32c-.66,0-1.19.13-1.57.4-.38.27-.57.67-.57,1.21,0,.37.14.7.43.99s.66.55,1.12.77c.46.23.94.43,1.43.61.45.17.9.37,1.35.6.45.23.84.52,1.2.87.35.35.64.78.85,1.29s.32,1.15.32,1.9c0,.79-.21,1.52-.61,2.2-.41.68-1.01,1.23-1.8,1.64-.79.42-1.77.62-2.92.62-.59,0-1.2-.06-1.81-.18-.61-.12-1.22-.3-1.81-.55-.59-.25-1.17-.56-1.72-.94l1.36-2.39c.37.27.77.5,1.2.71.43.21.87.36,1.3.48.44.11.84.17,1.21.17s.74-.05,1.11-.16.69-.29.93-.54.37-.61.37-1.06c0-.31-.1-.59-.31-.85-.21-.25-.48-.49-.83-.7-.35-.21-.72-.4-1.13-.55-.48-.18-.97-.4-1.48-.64-.51-.24-.98-.53-1.43-.88-.44-.35-.81-.78-1.08-1.29s-.41-1.15-.41-1.9c0-.9.2-1.69.6-2.35.4-.66.97-1.19,1.71-1.58.73-.39,1.58-.6,2.54-.65,1.26,0,2.28.15,3.06.44.78.3,1.49.65,2.11,1.06l-1.17,2.35Z"/>
      <path class="cls-2" d="M62.49,6.38c-.59-.32-1.2-.59-1.81-.81s-1.19-.32-1.73-.32c-.66,0-1.19.13-1.57.4-.38.27-.57.67-.57,1.21,0,.37.14.7.43.99s.66.55,1.12.77c.46.23.94.43,1.43.61.45.17.9.37,1.35.6.45.23.84.52,1.2.87.35.35.64.78.85,1.29s.32,1.15.32,1.9c0,.79-.21,1.52-.61,2.2-.41.68-1.01,1.23-1.8,1.64-.79.42-1.77.62-2.92.62-.59,0-1.2-.06-1.81-.18-.61-.12-1.22-.3-1.81-.55-.59-.25-1.17-.56-1.72-.94l1.36-2.39c.37.27.77.5,1.2.71.43.21.87.36,1.3.48.44.11.84.17,1.21.17s.74-.05,1.11-.16.69-.29.93-.54.37-.61.37-1.06c0-.31-.1-.59-.31-.85-.21-.25-.48-.49-.83-.7-.35-.21-.72-.4-1.13-.55-.48-.18-.97-.4-1.48-.64-.51-.24-.98-.53-1.43-.88-.44-.35-.81-.78-1.08-1.29s-.41-1.15-.41-1.9c0-.9.2-1.69.6-2.35.4-.66.97-1.19,1.71-1.58.73-.39,1.58-.6,2.54-.65,1.26,0,2.28.15,3.06.44.78.3,1.49.65,2.11,1.06l-1.17,2.35Z"/>
      <path class="cls-2" d="M29.79,4.37c0-.41.16-.75.49-1.02.33-.27.68-.4,1.05-.4s.72.13,1.03.4c.31.27.47.61.47,1.02s-.16.75-.47,1.01c-.31.26-.66.39-1.03.39s-.72-.13-1.05-.39c-.33-.26-.49-.6-.49-1.01ZM29.86,7.47h2.8v8.74h-2.8V7.47Z"/>
      <path class="cls-2" d="M86.7,11.63l-5.42-10.14h3.58l3.8,7.64-.86.06,3.74-7.7h3.58l-5.52,10.14v4.58h-2.9v-4.58Z"/>
      <path class="cls-2" d="M58.24,32.84c0-.41.16-.75.49-1.02.33-.27.68-.4,1.05-.4s.72.13,1.03.4c.31.27.47.61.47,1.02s-.16.75-.47,1.01c-.31.26-.66.39-1.03.39s-.72-.13-1.05-.39c-.33-.26-.49-.6-.49-1.01ZM58.3,35.94h2.8v8.74h-2.8v-8.74Z"/>
      <path class="cls-2" d="M115.15,40.1l-5.42-10.14h3.58l3.8,7.64-.86.06,3.74-7.7h3.58l-5.52,10.14v4.58h-2.9v-4.58Z"/>
      <path class="cls-2" d="M37.86,73.75l-11.16-10.08.86.48.06,9h-2.94v-15.3h.12l10.92,10.04-.64-.28-.06-9.18h2.92v15.32h-.08Z"/>
      <path class="cls-2" d="M86.68,61.31c0-.41.16-.75.49-1.02.33-.27.68-.4,1.05-.4s.72.13,1.03.4c.31.27.47.61.47,1.02s-.16.75-.47,1.01c-.31.26-.66.39-1.03.39s-.72-.13-1.05-.39c-.33-.26-.49-.6-.49-1.01ZM86.74,64.41h2.8v8.74h-2.8v-8.74Z"/>
      <path class="cls-2" d="M26.16,86.91h10.04v2.8h-7.14v3.14h6.32v2.8h-6.32v3.18h7.42v2.8h-10.32v-14.72Z"/>
      <path class="cls-2" d="M66.31,102.22l-11.16-10.08.86.48.06,9h-2.94v-15.3h.12l10.92,10.04-.64-.28-.06-9.18h2.92v15.32h-.08Z"/>
      <path class="cls-2" d="M115.13,89.79c0-.41.16-.75.49-1.02.33-.27.68-.4,1.05-.4s.72.13,1.03.4c.31.27.47.61.47,1.02s-.16.75-.47,1.01c-.31.26-.66.39-1.03.39s-.72-.13-1.05-.39c-.33-.26-.49-.6-.49-1.01ZM115.19,92.89h2.8v8.74h-2.8v-8.74Z"/>
    </g>
  </g>
</svg>