<?xml version="1.0" encoding="UTF-8"?>
<svg id="Layer_2" data-name="Layer 2" xmlns="http://www.w3.org/2000/svg" viewBox="0 0 467.44 602.25">
  <defs>
    <style>
      .cls-1, .cls-2, .cls-3, .cls-4, .cls-5, .cls-6, .cls-7, .cls-8, .cls-9, .cls-10, .cls-11, .cls-12, .cls-13, .cls-14, .cls-15, .cls-16, .cls-17, .cls-18, .cls-19, .cls-20, .cls-21, .cls-22, .cls-23, .cls-24, .cls-25, .cls-26, .cls-27, .cls-28, .cls-29, .cls-30, .cls-31, .cls-32, .cls-33, .cls-34, .cls-35, .cls-36 {
        stroke-width: 0px;
      }

      .cls-1, .cls-10, .cls-24, .cls-31 {
        opacity: .35;
      }

      .cls-1, .cls-12, .cls-15, .cls-20, .cls-22 {
        fill: #f546ad;
      }

      .cls-2, .cls-3, .cls-5, .cls-7, .cls-8, .cls-18, .cls-19, .cls-25, .cls-28, .cls-30, .cls-31, .cls-35 {
        fill: #21f5f5;
      }

      .cls-2, .cls-15, .cls-26 {
        opacity: .65;
      }

      .cls-3, .cls-6, .cls-33 {
        opacity: .5;
      }

      .cls-4 {
        fill: #2eb8b4;
      }

      .cls-5, .cls-11, .cls-20, .cls-29, .cls-32 {
        opacity: .15;
      }

      .cls-6 {
        fill: #57b8b5;
      }

      .cls-7 {
        opacity: .6;
      }

      .cls-8, .cls-13 {
        opacity: .7;
      }

      .cls-9, .cls-11, .cls-13, .cls-14 {
        fill: #c67af0;
      }

      .cls-9, .cls-16, .cls-17, .cls-22, .cls-28 {
        opacity: .25;
      }

      .cls-10, .cls-17, .cls-26, .cls-32, .cls-33 {
        fill: #14c2bd;
      }

      .cls-16, .cls-24, .cls-27, .cls-29 {
        fill: #303e4a;
      }

      .cls-18 {
        opacity: .75;
      }

      .cls-19 {
        opacity: .95;
      }

      .cls-21 {
        fill: #e4e4e6;
      }

      .cls-23 {
        fill: #35c5c1;
      }

      .cls-30 {
        opacity: .55;
      }

      .cls-34 {
        fill: #11c8c3;
      }

      .cls-35 {
        opacity: .8;
      }

      .cls-36 {
        fill: #1edcd7;
      }
    </style>
  </defs>
  <g id="Layer_1-2" data-name="Layer 1">
    <g>
      <path class="cls-25" d="M147.66,4.2c0-.5.2-.91.59-1.23.39-.32.82-.48,1.27-.48s.87.16,1.24.48c.38.32.57.73.57,1.23s-.19.91-.57,1.22c-.38.32-.79.47-1.24.47s-.87-.16-1.27-.47c-.39-.31-.59-.72-.59-1.22ZM147.73,7.94h3.38v10.54h-3.38V7.94Z"/>
      <path class="cls-8" d="M177.82.72h11.96v3.38h-4.32v14.38h-3.5V4.1h-4.15V.72Z"/>
      <path class="cls-8" d="M216.31,12.95l-6.54-12.23h4.32l4.58,9.21-1.04.07,4.51-9.29h4.32l-6.66,12.23v5.52h-3.5v-5.52Z"/>
      <path class="cls-25" d="M244.32,18.48L252.33.02h.19l8.01,18.45h-4.05l-5.11-12.98,2.54-1.74-6.13,14.71h-3.45ZM249.8,12.06h5.33l1.23,2.94h-7.65l1.09-2.94Z"/>
      <path class="cls-8" d="M283.05,11.92c0,.56.17,1.1.51,1.62.34.51.78.93,1.34,1.25.55.32,1.16.48,1.82.48.72,0,1.37-.16,1.93-.48.56-.32,1.01-.74,1.34-1.25.33-.52.49-1.05.49-1.62V.72h3.45v11.26c0,1.3-.32,2.46-.97,3.46-.64,1-1.51,1.79-2.61,2.36-1.09.57-2.31.86-3.64.86s-2.52-.29-3.6-.86c-1.09-.57-1.95-1.36-2.59-2.36s-.97-2.16-.97-3.46V.72h3.5v11.19Z"/>
      <path class="cls-25" d="M328.79,16.69c-.21.22-.54.45-.99.69s-.97.45-1.55.64c-.59.19-1.19.35-1.8.47-.61.12-1.19.18-1.74.18-1.45,0-2.75-.21-3.91-.64-1.16-.42-2.15-1.02-2.97-1.78-.82-.76-1.45-1.67-1.88-2.71-.44-1.05-.65-2.19-.65-3.43,0-1.62.24-3.03.73-4.23.49-1.2,1.16-2.2,2-2.99.85-.8,1.82-1.39,2.92-1.77,1.1-.39,2.26-.58,3.46-.58,1.14,0,2.19.13,3.14.37.95.25,1.75.56,2.41.93l-1.13,3.25c-.29-.16-.67-.32-1.16-.48-.48-.16-.97-.29-1.47-.4-.5-.1-.94-.16-1.33-.16-.97,0-1.82.12-2.56.36-.74.24-1.36.6-1.87,1.09s-.89,1.08-1.15,1.8c-.26.72-.39,1.55-.39,2.5,0,.84.15,1.59.44,2.26s.69,1.23,1.22,1.7c.52.47,1.14.82,1.86,1.06s1.51.36,2.38.36c.5,0,.96-.04,1.38-.11.42-.07.77-.19,1.06-.35v-2.15h-3.07v-3.38h6.61v7.5Z"/>
      <path class="cls-25" d="M346.22,18.48V0h.02l9.87,13.99-1.5-.34,9.84-13.65h.05v18.48h-3.5V7.89l.22,1.81-6.01,8.54h-.05l-6.17-8.54.6-1.66v10.44h-3.38Z"/>
      <path class="cls-18" d="M383.45.72h12.11v3.38h-8.61v3.79h7.62v3.38h-7.62v3.83h8.95v3.38h-12.45V.72Z"/>
      <path class="cls-25" d="M431.88,19.2l-13.46-12.16,1.04.58.07,10.85h-3.55V.02h.14l13.17,12.11-.77-.34-.07-11.07h3.52v18.48h-.1Z"/>
      <path class="cls-2" d="M452.31.72h11.96v3.38h-4.32v14.38h-3.5V4.1h-4.15V.72Z"/>
      <path class="cls-35" d="M143.51,35.07h11.96v3.38h-4.32v14.38h-3.5v-14.38h-4.15v-3.38Z"/>
      <path class="cls-35" d="M181.97,38.54c0-.5.2-.91.59-1.23.39-.32.82-.48,1.27-.48s.87.16,1.24.48c.38.32.57.73.57,1.23s-.19.91-.57,1.22c-.38.32-.79.47-1.24.47s-.87-.16-1.27-.47c-.39-.31-.59-.72-.59-1.22ZM182.04,42.28h3.38v10.54h-3.38v-10.54Z"/>
      <path class="cls-25" d="M212.13,35.07h11.96v3.38h-4.32v14.38h-3.5v-14.38h-4.15v-3.38Z"/>
      <path class="cls-8" d="M250.62,47.3l-6.54-12.23h4.32l4.58,9.21-1.04.07,4.51-9.29h4.32l-6.66,12.23v5.52h-3.5v-5.52Z"/>
      <path class="cls-8" d="M278.63,52.82l8.01-18.45h.19l8.01,18.45h-4.05l-5.11-12.98,2.54-1.74-6.13,14.71h-3.45ZM284.11,46.41h5.33l1.23,2.94h-7.65l1.09-2.94Z"/>
      <path class="cls-25" d="M317.36,46.26c0,.56.17,1.1.51,1.62.34.51.78.93,1.34,1.25.55.32,1.16.48,1.82.48.72,0,1.37-.16,1.93-.48.56-.32,1.01-.74,1.34-1.25.33-.52.49-1.05.49-1.62v-11.19h3.45v11.26c0,1.3-.32,2.46-.97,3.46-.64,1-1.51,1.79-2.61,2.36-1.09.57-2.31.86-3.64.86s-2.52-.29-3.6-.86c-1.09-.57-1.95-1.36-2.59-2.36-.64-1-.97-2.16-.97-3.46v-11.26h3.5v11.19Z"/>
      <path class="cls-25" d="M363.1,51.04c-.21.22-.54.45-.99.69s-.97.45-1.55.64c-.59.19-1.19.35-1.8.47-.61.12-1.19.18-1.74.18-1.45,0-2.75-.21-3.91-.64-1.16-.42-2.15-1.02-2.97-1.78-.82-.76-1.45-1.67-1.88-2.71-.44-1.05-.65-2.19-.65-3.43,0-1.62.24-3.03.73-4.23.49-1.2,1.16-2.2,2-2.99.85-.8,1.82-1.39,2.92-1.77,1.1-.39,2.26-.58,3.46-.58,1.14,0,2.19.13,3.14.37.95.25,1.75.56,2.41.93l-1.13,3.25c-.29-.16-.67-.32-1.16-.48-.48-.16-.97-.29-1.47-.4-.5-.1-.94-.16-1.33-.16-.97,0-1.82.12-2.56.36-.74.24-1.36.6-1.87,1.09s-.89,1.08-1.15,1.8c-.26.72-.39,1.55-.39,2.5,0,.84.15,1.59.44,2.26s.69,1.23,1.22,1.7c.52.47,1.14.82,1.86,1.06s1.51.36,2.38.36c.5,0,.96-.04,1.38-.11.42-.07.77-.19,1.06-.35v-2.15h-3.07v-3.38h6.61v7.5Z"/>
      <path class="cls-18" d="M380.53,52.82v-18.48h.02l9.87,13.99-1.5-.34,9.84-13.65h.05v18.48h-3.5v-10.59l.22,1.81-6.01,8.54h-.05l-6.17-8.54.6-1.66v10.44h-3.38Z"/>
      <path class="cls-8" d="M417.76,35.07h12.11v3.38h-8.61v3.79h7.62v3.38h-7.62v3.83h8.95v3.38h-12.45v-17.75Z"/>
      <path class="cls-2" d="M466.19,53.55l-13.46-12.16,1.04.58.07,10.85h-3.55v-18.45h.14l13.17,12.11-.77-.34-.07-11.07h3.52v18.48h-.1Z"/>
      <path class="cls-25" d="M157.39,87.89l-13.46-12.16,1.04.58.07,10.85h-3.55v-18.45h.14l13.17,12.11-.77-.34-.07-11.07h3.52v18.48h-.1Z"/>
      <path class="cls-25" d="M177.82,69.42h11.96v3.38h-4.32v14.38h-3.5v-14.38h-4.15v-3.38Z"/>
      <path class="cls-2" d="M216.28,72.89c0-.5.2-.91.59-1.23.39-.32.82-.48,1.27-.48s.87.16,1.24.48c.38.32.57.73.57,1.23s-.19.91-.57,1.22c-.38.32-.79.47-1.24.47s-.87-.16-1.27-.47c-.39-.31-.59-.72-.59-1.22ZM216.36,76.63h3.38v10.54h-3.38v-10.54Z"/>
      <path class="cls-25" d="M246.45,69.42h11.96v3.38h-4.32v14.38h-3.5v-14.38h-4.15v-3.38Z"/>
      <path class="cls-25" d="M284.93,81.64l-6.54-12.23h4.32l4.58,9.21-1.04.07,4.51-9.29h4.32l-6.66,12.23v5.52h-3.5v-5.52Z"/>
      <path class="cls-18" d="M312.94,87.17l8.01-18.45h.19l8.01,18.45h-4.05l-5.11-12.98,2.54-1.74-6.13,14.71h-3.45ZM318.42,80.75h5.33l1.23,2.94h-7.65l1.09-2.94Z"/>
      <path class="cls-18" d="M351.67,80.61c0,.56.17,1.1.51,1.62.34.51.78.93,1.34,1.25.55.32,1.16.48,1.82.48.72,0,1.37-.16,1.93-.48.56-.32,1.01-.74,1.34-1.25.33-.52.49-1.05.49-1.62v-11.19h3.45v11.26c0,1.3-.32,2.46-.97,3.46-.64,1-1.51,1.79-2.61,2.36-1.09.57-2.31.86-3.64.86s-2.52-.29-3.6-.86c-1.09-.57-1.95-1.36-2.59-2.36s-.97-2.16-.97-3.46v-11.26h3.5v11.19Z"/>
      <path class="cls-14" d="M397.41,85.38c-.21.22-.54.45-.99.69s-.97.45-1.55.64c-.59.19-1.19.35-1.8.47-.61.12-1.19.18-1.74.18-1.45,0-2.75-.21-3.91-.64-1.16-.42-2.15-1.02-2.97-1.78-.82-.76-1.45-1.67-1.88-2.71-.44-1.05-.65-2.19-.65-3.43,0-1.62.24-3.03.73-4.23.49-1.2,1.16-2.2,2-2.99.85-.8,1.82-1.39,2.92-1.77,1.1-.39,2.26-.58,3.46-.58,1.14,0,2.19.13,3.14.37.95.25,1.75.56,2.41.93l-1.13,3.25c-.29-.16-.67-.32-1.16-.48-.48-.16-.97-.29-1.47-.4-.5-.1-.94-.16-1.33-.16-.97,0-1.82.12-2.56.36-.74.24-1.36.6-1.87,1.09s-.89,1.08-1.15,1.8c-.26.72-.39,1.55-.39,2.5,0,.84.15,1.59.44,2.26s.69,1.23,1.22,1.7c.52.47,1.14.82,1.86,1.06s1.51.36,2.38.36c.5,0,.96-.04,1.38-.11.42-.07.77-.19,1.06-.35v-2.15h-3.07v-3.38h6.61v7.5Z"/>
      <path class="cls-8" d="M414.84,87.17v-18.48h.02l9.87,13.99-1.5-.34,9.84-13.65h.05v18.48h-3.5v-10.59l.22,1.81-6.01,8.54h-.05l-6.17-8.54.6-1.66v10.44h-3.38Z"/>
      <path class="cls-25" d="M452.07,69.42h12.11v3.38h-8.61v3.79h7.62v3.38h-7.62v3.83h8.95v3.38h-12.45v-17.75Z"/>
      <path class="cls-30" d="M143.27,103.76h12.11v3.38h-8.61v3.79h7.62v3.38h-7.62v3.83h8.95v3.38h-12.45v-17.75Z"/>
      <path class="cls-35" d="M191.7,122.24l-13.46-12.16,1.04.58.07,10.85h-3.55v-18.45h.14l13.17,12.11-.77-.34-.07-11.07h3.52v18.48h-.1Z"/>
      <path class="cls-2" d="M212.13,103.76h11.96v3.38h-4.32v14.38h-3.5v-14.38h-4.15v-3.38Z"/>
      <path class="cls-18" d="M250.59,107.23c0-.5.2-.91.59-1.23.39-.32.82-.48,1.27-.48s.87.16,1.24.48c.38.32.57.73.57,1.23s-.19.91-.57,1.22c-.38.32-.79.47-1.24.47s-.87-.16-1.27-.47c-.39-.31-.59-.72-.59-1.22ZM250.67,110.97h3.38v10.54h-3.38v-10.54Z"/>
      <path class="cls-18" d="M280.76,103.76h11.96v3.38h-4.32v14.38h-3.5v-14.38h-4.15v-3.38Z"/>
      <path class="cls-18" d="M319.24,115.99l-6.54-12.23h4.32l4.58,9.21-1.04.07,4.51-9.29h4.32l-6.66,12.23v5.52h-3.5v-5.52Z"/>
      <path class="cls-18" d="M347.26,121.51l8.01-18.45h.19l8.01,18.45h-4.05l-5.11-12.98,2.54-1.74-6.13,14.71h-3.45ZM352.73,115.1h5.33l1.23,2.94h-7.65l1.09-2.94Z"/>
      <path class="cls-25" d="M385.98,114.95c0,.56.17,1.1.51,1.62.34.51.78.93,1.34,1.25.55.32,1.16.48,1.82.48.72,0,1.37-.16,1.93-.48.56-.32,1.01-.74,1.34-1.25.33-.52.49-1.05.49-1.62v-11.19h3.45v11.26c0,1.3-.32,2.46-.97,3.46s-1.51,1.79-2.61,2.36c-1.09.57-2.31.86-3.64.86s-2.52-.29-3.6-.86c-1.09-.57-1.95-1.36-2.59-2.36-.64-1-.97-2.16-.97-3.46v-11.26h3.5v11.19Z"/>
      <path class="cls-13" d="M431.72,119.73c-.21.22-.54.45-.99.69s-.97.45-1.55.64c-.59.19-1.19.35-1.8.47-.61.12-1.19.18-1.74.18-1.45,0-2.75-.21-3.91-.64-1.16-.42-2.15-1.02-2.97-1.78-.82-.76-1.45-1.67-1.88-2.71-.44-1.05-.65-2.19-.65-3.43,0-1.62.24-3.03.73-4.23.49-1.2,1.16-2.2,2-2.99.85-.8,1.82-1.39,2.92-1.77,1.1-.39,2.26-.58,3.46-.58,1.14,0,2.19.13,3.14.37.95.25,1.75.56,2.41.93l-1.13,3.25c-.29-.16-.67-.32-1.16-.48-.48-.16-.97-.29-1.47-.4-.5-.1-.94-.16-1.33-.16-.97,0-1.82.12-2.56.36-.74.24-1.36.6-1.87,1.09s-.89,1.08-1.15,1.8c-.26.72-.39,1.55-.39,2.5,0,.84.15,1.59.44,2.26s.69,1.23,1.22,1.7c.52.47,1.14.82,1.86,1.06s1.51.36,2.38.36c.5,0,.96-.04,1.38-.11.42-.07.77-.19,1.06-.35v-2.15h-3.07v-3.38h6.61v7.5Z"/>
      <path class="cls-2" d="M449.15,121.51v-18.48h.02l9.87,13.99-1.5-.34,9.84-13.65h.05v18.48h-3.5v-10.59l.22,1.81-6.01,8.54h-.05l-6.17-8.54.6-1.66v10.44h-3.38Z"/>
      <path class="cls-30" d="M140.35,155.86v-18.48h.02l9.87,13.99-1.5-.34,9.84-13.65h.05v18.48h-3.5v-10.59l.22,1.81-6.01,8.54h-.05l-6.17-8.54.6-1.66v10.44h-3.38Z"/>
      <path class="cls-30" d="M177.58,138.11h12.11v3.38h-8.61v3.79h7.62v3.38h-7.62v3.83h8.95v3.38h-12.45v-17.75Z"/>
      <path class="cls-2" d="M226.02,156.58l-13.46-12.16,1.04.58.07,10.85h-3.55v-18.45h.14l13.17,12.11-.77-.34-.07-11.07h3.52v18.48h-.1Z"/>
      <path class="cls-18" d="M246.45,138.11h11.96v3.38h-4.32v14.38h-3.5v-14.38h-4.15v-3.38Z"/>
      <path class="cls-18" d="M284.9,141.58c0-.5.2-.91.59-1.23.39-.32.82-.48,1.27-.48s.87.16,1.24.48c.38.32.57.73.57,1.23s-.19.91-.57,1.22c-.38.32-.79.47-1.24.47s-.87-.16-1.27-.47c-.39-.31-.59-.72-.59-1.22ZM284.98,145.32h3.38v10.54h-3.38v-10.54Z"/>
      <path class="cls-25" d="M315.07,138.11h11.96v3.38h-4.32v14.38h-3.5v-14.38h-4.15v-3.38Z"/>
      <path class="cls-35" d="M353.55,150.34l-6.54-12.23h4.32l4.58,9.21-1.04.07,4.51-9.29h4.32l-6.66,12.23v5.52h-3.5v-5.52Z"/>
      <path class="cls-35" d="M381.57,155.86l8.01-18.45h.19l8.01,18.45h-4.05l-5.11-12.98,2.54-1.74-6.13,14.71h-3.45ZM387.04,149.44h5.33l1.23,2.94h-7.65l1.09-2.94Z"/>
      <path class="cls-25" d="M420.29,149.3c0,.56.17,1.1.51,1.62.34.51.78.93,1.34,1.25.55.32,1.16.48,1.82.48.72,0,1.37-.16,1.93-.48.56-.32,1.01-.74,1.34-1.25.33-.52.49-1.05.49-1.62v-11.19h3.45v11.26c0,1.3-.32,2.46-.97,3.46s-1.51,1.79-2.61,2.36c-1.09.57-2.31.86-3.64.86s-2.52-.29-3.6-.86c-1.09-.57-1.95-1.36-2.59-2.36s-.97-2.16-.97-3.46v-11.26h3.5v11.19Z"/>
      <path class="cls-2" d="M466.04,154.08c-.21.22-.54.45-.99.69s-.97.45-1.55.64c-.59.19-1.19.35-1.8.47-.61.12-1.19.18-1.74.18-1.45,0-2.75-.21-3.91-.64-1.16-.42-2.15-1.02-2.97-1.78-.82-.76-1.45-1.67-1.88-2.71-.44-1.05-.65-2.19-.65-3.43,0-1.62.24-3.03.73-4.23.49-1.2,1.16-2.2,2-2.99.85-.8,1.82-1.39,2.92-1.77,1.1-.39,2.26-.58,3.46-.58,1.14,0,2.19.13,3.14.37.95.25,1.75.56,2.41.93l-1.13,3.25c-.29-.16-.67-.32-1.16-.48-.48-.16-.97-.29-1.47-.4-.5-.1-.94-.16-1.33-.16-.97,0-1.82.12-2.56.36-.74.24-1.36.6-1.87,1.09s-.89,1.08-1.15,1.8c-.26.72-.39,1.55-.39,2.5,0,.84.15,1.59.44,2.26s.69,1.23,1.22,1.7c.52.47,1.14.82,1.86,1.06s1.51.36,2.38.36c.5,0,.96-.04,1.38-.11.42-.07.77-.19,1.06-.35v-2.15h-3.07v-3.38h6.61v7.5Z"/>
      <path class="cls-3" d="M157.24,188.42c-.21.22-.54.45-.99.69s-.97.45-1.55.64c-.59.19-1.19.35-1.8.47-.61.12-1.19.18-1.74.18-1.45,0-2.75-.21-3.91-.64-1.16-.42-2.15-1.02-2.97-1.78-.82-.76-1.45-1.67-1.88-2.71-.44-1.05-.65-2.19-.65-3.43,0-1.62.24-3.03.73-4.23.49-1.2,1.16-2.2,2-2.99.85-.8,1.82-1.39,2.92-1.77,1.1-.39,2.26-.58,3.46-.58,1.14,0,2.19.13,3.14.37.95.25,1.75.56,2.41.93l-1.13,3.25c-.29-.16-.67-.32-1.16-.48-.48-.16-.97-.29-1.47-.4-.5-.1-.94-.16-1.33-.16-.97,0-1.82.12-2.56.36-.74.24-1.36.6-1.87,1.09s-.89,1.08-1.15,1.8c-.26.72-.39,1.55-.39,2.5,0,.84.15,1.59.44,2.26s.69,1.23,1.22,1.7c.52.47,1.14.82,1.86,1.06s1.51.36,2.38.36c.5,0,.96-.04,1.38-.11.42-.07.77-.19,1.06-.35v-2.15h-3.07v-3.38h6.61v7.5Z"/>
      <path class="cls-30" d="M174.66,190.21v-18.48h.02l9.87,13.99-1.5-.34,9.84-13.65h.05v18.48h-3.5v-10.59l.22,1.81-6.01,8.54h-.05l-6.17-8.54.6-1.66v10.44h-3.38Z"/>
      <path class="cls-18" d="M211.89,172.45h12.11v3.38h-8.61v3.79h7.62v3.38h-7.62v3.83h8.95v3.38h-12.45v-17.75Z"/>
      <path class="cls-2" d="M260.33,190.93l-13.46-12.16,1.04.58.07,10.85h-3.55v-18.45h.14l13.17,12.11-.77-.34-.07-11.07h3.52v18.48h-.1Z"/>
      <path class="cls-25" d="M280.76,172.45h11.96v3.38h-4.32v14.38h-3.5v-14.38h-4.15v-3.38Z"/>
      <path class="cls-25" d="M319.22,175.92c0-.5.2-.91.59-1.23.39-.32.82-.48,1.27-.48s.87.16,1.24.48c.38.32.57.73.57,1.23s-.19.91-.57,1.22c-.38.32-.79.47-1.24.47s-.87-.16-1.27-.47c-.39-.31-.59-.72-.59-1.22ZM319.29,179.66h3.38v10.54h-3.38v-10.54Z"/>
      <path class="cls-35" d="M349.38,172.45h11.96v3.38h-4.32v14.38h-3.5v-14.38h-4.15v-3.38Z"/>
      <path class="cls-35" d="M387.86,184.68l-6.54-12.23h4.32l4.58,9.21-1.04.07,4.51-9.29h4.32l-6.66,12.23v5.52h-3.5v-5.52Z"/>
      <path class="cls-25" d="M415.88,190.21l8.01-18.45h.19l8.01,18.45h-4.05l-5.11-12.98,2.54-1.74-6.13,14.71h-3.45ZM421.35,183.79h5.33l1.23,2.94h-7.65l1.09-2.94Z"/>
      <path class="cls-25" d="M454.6,183.64c0,.56.17,1.1.51,1.62.34.51.78.93,1.34,1.25.55.32,1.16.48,1.82.48.72,0,1.37-.16,1.93-.48.56-.32,1.01-.74,1.34-1.25.33-.52.49-1.05.49-1.62v-11.19h3.45v11.26c0,1.3-.32,2.46-.97,3.46-.64,1-1.51,1.79-2.61,2.36-1.09.57-2.31.86-3.64.86s-2.52-.29-3.6-.86c-1.09-.57-1.95-1.36-2.59-2.36s-.97-2.16-.97-3.46v-11.26h3.5v11.19Z"/>
      <path class="cls-25" d="M145.8,217.99c0,.56.17,1.1.51,1.62.34.51.78.93,1.34,1.25.55.32,1.16.48,1.82.48.72,0,1.37-.16,1.93-.48.56-.32,1.01-.74,1.34-1.25.33-.52.49-1.05.49-1.62v-11.19h3.45v11.26c0,1.3-.32,2.46-.97,3.46-.64,1-1.51,1.79-2.61,2.36-1.09.57-2.31.86-3.64.86s-2.52-.29-3.6-.86c-1.09-.57-1.95-1.36-2.59-2.36s-.97-2.16-.97-3.46v-11.26h3.5v11.19Z"/>
      <path class="cls-12" d="M191.55,222.77c-.21.22-.54.45-.99.69s-.97.45-1.55.64c-.59.19-1.19.35-1.8.47-.61.12-1.19.18-1.74.18-1.45,0-2.75-.21-3.91-.64-1.16-.42-2.15-1.02-2.97-1.78-.82-.76-1.45-1.67-1.88-2.71-.44-1.05-.65-2.19-.65-3.43,0-1.62.24-3.03.73-4.23.49-1.2,1.16-2.2,2-2.99.85-.8,1.82-1.39,2.92-1.77,1.1-.39,2.26-.58,3.46-.58,1.14,0,2.19.13,3.14.37.95.25,1.75.56,2.41.93l-1.13,3.25c-.29-.16-.67-.32-1.16-.48-.48-.16-.97-.29-1.47-.4-.5-.1-.94-.16-1.33-.16-.97,0-1.82.12-2.56.36-.74.24-1.36.6-1.87,1.09s-.89,1.08-1.15,1.8c-.26.72-.39,1.55-.39,2.5,0,.84.15,1.59.44,2.26s.69,1.23,1.22,1.7c.52.47,1.14.82,1.86,1.06s1.51.36,2.38.36c.5,0,.96-.04,1.38-.11.42-.07.77-.19,1.06-.35v-2.15h-3.07v-3.38h6.61v7.5Z"/>
      <path class="cls-25" d="M208.97,224.55v-18.48h.02l9.87,13.99-1.5-.34,9.84-13.65h.05v18.48h-3.5v-10.59l.22,1.81-6.01,8.54h-.05l-6.17-8.54.6-1.66v10.44h-3.38Z"/>
      <path class="cls-2" d="M246.2,206.8h12.11v3.38h-8.61v3.79h7.62v3.38h-7.62v3.83h8.95v3.38h-12.45v-17.75Z"/>
      <path class="cls-25" d="M294.64,225.28l-13.46-12.16,1.04.58.07,10.85h-3.55v-18.45h.14l13.17,12.11-.77-.34-.07-11.07h3.52v18.48h-.1Z"/>
      <path class="cls-25" d="M315.07,206.8h11.96v3.38h-4.32v14.38h-3.5v-14.38h-4.15v-3.38Z"/>
      <path class="cls-25" d="M353.53,210.27c0-.5.2-.91.59-1.23.39-.32.82-.48,1.27-.48s.87.16,1.24.48c.38.32.57.73.57,1.23s-.19.91-.57,1.22c-.38.32-.79.47-1.24.47s-.87-.16-1.27-.47c-.39-.31-.59-.72-.59-1.22ZM353.6,214.01h3.38v10.54h-3.38v-10.54Z"/>
      <path class="cls-25" d="M383.69,206.8h11.96v3.38h-4.32v14.38h-3.5v-14.38h-4.15v-3.38Z"/>
      <path class="cls-25" d="M422.17,219.03l-6.54-12.23h4.32l4.58,9.21-1.04.07,4.51-9.29h4.32l-6.66,12.23v5.52h-3.5v-5.52Z"/>
      <path class="cls-25" d="M450.19,224.55l8.01-18.45h.19l8.01,18.45h-4.05l-5.11-12.98,2.54-1.74-6.13,14.71h-3.45ZM455.67,218.13h5.33l1.23,2.94h-7.65l1.09-2.94Z"/>
      <path class="cls-12" d="M141.39,258.9l8.01-18.45h.19l8.01,18.45h-4.05l-5.11-12.98,2.54-1.74-6.13,14.71h-3.45ZM146.87,252.48h5.33l1.23,2.94h-7.65l1.09-2.94Z"/>
      <path class="cls-12" d="M180.11,252.34c0,.56.17,1.1.51,1.62.34.51.78.93,1.34,1.25.55.32,1.16.48,1.82.48.72,0,1.37-.16,1.93-.48.56-.32,1.01-.74,1.34-1.25.33-.52.49-1.05.49-1.62v-11.19h3.45v11.26c0,1.3-.32,2.46-.97,3.46s-1.51,1.79-2.61,2.36c-1.09.57-2.31.86-3.64.86s-2.52-.29-3.6-.86c-1.09-.57-1.95-1.36-2.59-2.36-.64-1-.97-2.16-.97-3.46v-11.26h3.5v11.19Z"/>
      <path class="cls-12" d="M225.86,257.11c-.21.22-.54.45-.99.69s-.97.45-1.55.64c-.59.19-1.19.35-1.8.47-.61.12-1.19.18-1.74.18-1.45,0-2.75-.21-3.91-.64-1.16-.42-2.15-1.02-2.97-1.78-.82-.76-1.45-1.67-1.88-2.71-.44-1.05-.65-2.19-.65-3.43,0-1.62.24-3.03.73-4.23.49-1.2,1.16-2.2,2-2.99.85-.8,1.82-1.39,2.92-1.77,1.1-.39,2.26-.58,3.46-.58,1.14,0,2.19.13,3.14.37.95.25,1.75.56,2.41.93l-1.13,3.25c-.29-.16-.67-.32-1.16-.48-.48-.16-.97-.29-1.47-.4-.5-.1-.94-.16-1.33-.16-.97,0-1.82.12-2.56.36-.74.24-1.36.6-1.87,1.09s-.89,1.08-1.15,1.8c-.26.72-.39,1.55-.39,2.5,0,.84.15,1.59.44,2.26s.69,1.23,1.22,1.7c.52.47,1.14.82,1.86,1.06.72.24,1.51.36,2.38.36.5,0,.96-.04,1.38-.11.42-.07.77-.19,1.06-.35v-2.15h-3.07v-3.38h6.61v7.5Z"/>
      <path class="cls-12" d="M243.28,258.9v-18.48h.02l9.87,13.99-1.5-.34,9.84-13.65h.05v18.48h-3.5v-10.59l.22,1.81-6.01,8.54h-.05l-6.17-8.54.6-1.66v10.44h-3.38Z"/>
      <path class="cls-12" d="M280.51,241.14h12.11v3.38h-8.61v3.79h7.62v3.38h-7.62v3.83h8.95v3.38h-12.45v-17.75Z"/>
      <path class="cls-12" d="M328.95,259.62l-13.46-12.16,1.04.58.07,10.85h-3.55v-18.45h.14l13.17,12.11-.77-.34-.07-11.07h3.52v18.48h-.1Z"/>
      <path class="cls-12" d="M349.38,241.14h11.96v3.38h-4.32v14.38h-3.5v-14.38h-4.15v-3.38Z"/>
      <path class="cls-12" d="M387.84,244.62c0-.5.2-.91.59-1.23.39-.32.82-.48,1.27-.48s.87.16,1.24.48c.38.32.57.73.57,1.23s-.19.91-.57,1.22c-.38.32-.79.47-1.24.47s-.87-.16-1.27-.47c-.39-.31-.59-.72-.59-1.22ZM387.91,248.36h3.38v10.54h-3.38v-10.54Z"/>
      <path class="cls-15" d="M418,241.14h11.96v3.38h-4.32v14.38h-3.5v-14.38h-4.15v-3.38Z"/>
      <path class="cls-15" d="M456.48,253.37l-6.54-12.23h4.32l4.58,9.21-1.04.07,4.51-9.29h4.32l-6.66,12.23v5.52h-3.5v-5.52Z"/>
      <path class="cls-36" d="M147.68,287.72l-6.54-12.23h4.32l4.58,9.21-1.04.07,4.51-9.29h4.32l-6.66,12.23v5.52h-3.5v-5.52Z"/>
      <path class="cls-36" d="M175.7,293.24l8.01-18.45h.19l8.01,18.45h-4.05l-5.11-12.98,2.54-1.74-6.13,14.71h-3.45ZM181.18,286.83h5.33l1.23,2.94h-7.65l1.09-2.94Z"/>
      <path class="cls-4" d="M214.42,286.68c0,.56.17,1.1.51,1.62.34.51.78.93,1.34,1.25.55.32,1.16.48,1.82.48.72,0,1.37-.16,1.93-.48.56-.32,1.01-.74,1.34-1.25.33-.52.49-1.05.49-1.62v-11.19h3.45v11.26c0,1.3-.32,2.46-.97,3.46s-1.51,1.79-2.61,2.36c-1.09.57-2.31.86-3.64.86s-2.52-.29-3.6-.86c-1.09-.57-1.95-1.36-2.59-2.36-.64-1-.97-2.16-.97-3.46v-11.26h3.5v11.19Z"/>
      <path class="cls-27" d="M260.17,291.46c-.21.22-.54.45-.99.69s-.97.45-1.55.64c-.59.19-1.19.35-1.8.47-.61.12-1.19.18-1.74.18-1.45,0-2.75-.21-3.91-.64-1.16-.42-2.15-1.02-2.97-1.78-.82-.76-1.45-1.67-1.88-2.71-.44-1.05-.65-2.19-.65-3.43,0-1.62.24-3.03.73-4.23.49-1.2,1.16-2.2,2-2.99.85-.8,1.82-1.39,2.92-1.77,1.1-.39,2.26-.58,3.46-.58,1.14,0,2.19.13,3.14.37.95.25,1.75.56,2.41.93l-1.13,3.25c-.29-.16-.67-.32-1.16-.48-.48-.16-.97-.29-1.47-.4-.5-.1-.94-.16-1.33-.16-.97,0-1.82.12-2.56.36-.74.24-1.36.6-1.87,1.09s-.89,1.08-1.15,1.8c-.26.72-.39,1.55-.39,2.5,0,.84.15,1.59.44,2.26s.69,1.23,1.22,1.7c.52.47,1.14.82,1.86,1.06s1.51.36,2.38.36c.5,0,.96-.04,1.38-.11.42-.07.77-.19,1.06-.35v-2.15h-3.07v-3.38h6.61v7.5Z"/>
      <path class="cls-23" d="M277.59,293.24v-18.48h.02l9.87,13.99-1.5-.34,9.84-13.65h.05v18.48h-3.5v-10.59l.22,1.81-6.01,8.54h-.05l-6.17-8.54.6-1.66v10.44h-3.38Z"/>
      <path class="cls-34" d="M314.83,275.49h12.11v3.38h-8.61v3.79h7.62v3.38h-7.62v3.83h8.95v3.38h-12.45v-17.75Z"/>
      <path class="cls-34" d="M363.26,293.97l-13.46-12.16,1.04.58.07,10.85h-3.55v-18.45h.14l13.17,12.11-.77-.34-.07-11.07h3.52v18.48h-.1Z"/>
      <path class="cls-6" d="M383.69,275.49h11.96v3.38h-4.32v14.38h-3.5v-14.38h-4.15v-3.38Z"/>
      <path class="cls-33" d="M422.15,278.96c0-.5.2-.91.59-1.23.39-.32.82-.48,1.27-.48s.87.16,1.24.48c.38.32.57.73.57,1.23s-.19.91-.57,1.22c-.38.32-.79.47-1.24.47s-.87-.16-1.27-.47c-.39-.31-.59-.72-.59-1.22ZM422.22,282.7h3.38v10.54h-3.38v-10.54Z"/>
      <path class="cls-33" d="M452.31,275.49h11.96v3.38h-4.32v14.38h-3.5v-14.38h-4.15v-3.38Z"/>
      <path class="cls-27" d="M143.51,309.84h11.96v3.38h-4.32v14.38h-3.5v-14.38h-4.15v-3.38Z"/>
      <path class="cls-27" d="M181.99,322.06l-6.54-12.23h4.32l4.58,9.21-1.04.07,4.51-9.29h4.32l-6.66,12.23v5.52h-3.5v-5.52Z"/>
      <path class="cls-21" d="M210.01,327.59l8.01-18.45h.19l8.01,18.45h-4.05l-5.11-12.98,2.54-1.74-6.13,14.71h-3.45ZM215.49,321.17h5.33l1.23,2.94h-7.65l1.09-2.94Z"/>
      <path class="cls-27" d="M248.74,321.03c0,.56.17,1.1.51,1.62.34.51.78.93,1.34,1.25.55.32,1.16.48,1.82.48.72,0,1.37-.16,1.93-.48.56-.32,1.01-.74,1.34-1.25.33-.52.49-1.05.49-1.62v-11.19h3.45v11.26c0,1.3-.32,2.46-.97,3.46-.64,1-1.51,1.79-2.61,2.36-1.09.57-2.31.86-3.64.86s-2.52-.29-3.6-.86c-1.09-.57-1.95-1.36-2.59-2.36s-.97-2.16-.97-3.46v-11.26h3.5v11.19Z"/>
      <path class="cls-14" d="M294.48,325.8c-.21.22-.54.45-.99.69s-.97.45-1.55.64c-.59.19-1.19.35-1.8.47-.61.12-1.19.18-1.74.18-1.45,0-2.75-.21-3.91-.64-1.16-.42-2.15-1.02-2.97-1.78-.82-.76-1.45-1.67-1.88-2.71-.44-1.05-.65-2.19-.65-3.43,0-1.62.24-3.03.73-4.23.49-1.2,1.16-2.2,2-2.99.85-.8,1.82-1.39,2.92-1.77,1.1-.39,2.26-.58,3.46-.58,1.14,0,2.19.13,3.14.37.95.25,1.75.56,2.41.93l-1.13,3.25c-.29-.16-.67-.32-1.16-.48-.48-.16-.97-.29-1.47-.4-.5-.1-.94-.16-1.33-.16-.97,0-1.82.12-2.56.36-.74.24-1.36.6-1.87,1.09s-.89,1.08-1.15,1.8c-.26.72-.39,1.55-.39,2.5,0,.84.15,1.59.44,2.26s.69,1.23,1.22,1.7c.52.47,1.14.82,1.86,1.06s1.51.36,2.38.36c.5,0,.96-.04,1.38-.11.42-.07.77-.19,1.06-.35v-2.15h-3.07v-3.38h6.61v7.5Z"/>
      <path class="cls-27" d="M311.91,327.59v-18.48h.02l9.87,13.99-1.5-.34,9.84-13.65h.05v18.48h-3.5v-10.59l.22,1.81-6.01,8.54h-.05l-6.17-8.54.6-1.66v10.44h-3.38Z"/>
      <path class="cls-27" d="M349.14,309.84h12.11v3.38h-8.61v3.79h7.62v3.38h-7.62v3.83h8.95v3.38h-12.45v-17.75Z"/>
      <path class="cls-27" d="M397.57,328.31l-13.46-12.16,1.04.58.07,10.85h-3.55v-18.45h.14l13.17,12.11-.77-.34-.07-11.07h3.52v18.48h-.1Z"/>
      <path class="cls-27" d="M418,309.84h11.96v3.38h-4.32v14.38h-3.5v-14.38h-4.15v-3.38Z"/>
      <path class="cls-21" d="M456.46,313.31c0-.5.2-.91.59-1.23.39-.32.82-.48,1.27-.48s.87.16,1.24.48c.38.32.57.73.57,1.23s-.19.91-.57,1.22c-.38.32-.79.47-1.24.47s-.87-.16-1.27-.47c-.39-.31-.59-.72-.59-1.22ZM456.53,317.05h3.38v10.54h-3.38v-10.54Z"/>
      <path class="cls-21" d="M147.66,346.83c0-.5.2-.91.59-1.23.39-.32.82-.48,1.27-.48s.87.16,1.24.48c.38.32.57.73.57,1.23s-.19.91-.57,1.22c-.38.32-.79.47-1.24.47s-.87-.16-1.27-.47c-.39-.31-.59-.72-.59-1.22ZM147.73,350.57h3.38v10.54h-3.38v-10.54Z"/>
      <path class="cls-27" d="M177.82,343.36h11.96v3.38h-4.32v14.38h-3.5v-14.38h-4.15v-3.38Z"/>
      <path class="cls-27" d="M216.31,355.59l-6.54-12.23h4.32l4.58,9.21-1.04.07,4.51-9.29h4.32l-6.66,12.23v5.52h-3.5v-5.52Z"/>
      <path class="cls-25" d="M244.32,361.11l8.01-18.45h.19l8.01,18.45h-4.05l-5.11-12.98,2.54-1.74-6.13,14.71h-3.45ZM249.8,354.69h5.33l1.23,2.94h-7.65l1.09-2.94Z"/>
      <path class="cls-27" d="M283.05,354.55c0,.56.17,1.1.51,1.62.34.51.78.93,1.34,1.25.55.32,1.16.48,1.82.48.72,0,1.37-.16,1.93-.48.56-.32,1.01-.74,1.34-1.25.33-.52.49-1.05.49-1.62v-11.19h3.45v11.26c0,1.3-.32,2.46-.97,3.46s-1.51,1.79-2.61,2.36c-1.09.57-2.31.86-3.64.86s-2.52-.29-3.6-.86c-1.09-.57-1.95-1.36-2.59-2.36-.64-1-.97-2.16-.97-3.46v-11.26h3.5v11.19Z"/>
      <path class="cls-12" d="M328.79,359.33c-.21.22-.54.45-.99.69s-.97.45-1.55.64c-.59.19-1.19.35-1.8.47-.61.12-1.19.18-1.74.18-1.45,0-2.75-.21-3.91-.64-1.16-.42-2.15-1.02-2.97-1.78-.82-.76-1.45-1.67-1.88-2.71-.44-1.05-.65-2.19-.65-3.43,0-1.62.24-3.03.73-4.23.49-1.2,1.16-2.2,2-2.99.85-.8,1.82-1.39,2.92-1.77,1.1-.39,2.26-.58,3.46-.58,1.14,0,2.19.13,3.14.37.95.25,1.75.56,2.41.93l-1.13,3.25c-.29-.16-.67-.32-1.16-.48-.48-.16-.97-.29-1.47-.4-.5-.1-.94-.16-1.33-.16-.97,0-1.82.12-2.56.36-.74.24-1.36.6-1.87,1.09s-.89,1.08-1.15,1.8c-.26.72-.39,1.55-.39,2.5,0,.84.15,1.59.44,2.26s.69,1.23,1.22,1.7c.52.47,1.14.82,1.86,1.06s1.51.36,2.38.36c.5,0,.96-.04,1.38-.11.42-.07.77-.19,1.06-.35v-2.15h-3.07v-3.38h6.61v7.5Z"/>
      <path class="cls-27" d="M346.22,361.11v-18.48h.02l9.87,13.99-1.5-.34,9.84-13.65h.05v18.48h-3.5v-10.59l.22,1.81-6.01,8.54h-.05l-6.17-8.54.6-1.66v10.44h-3.38Z"/>
      <path class="cls-27" d="M383.45,343.36h12.11v3.38h-8.61v3.79h7.62v3.38h-7.62v3.83h8.95v3.38h-12.45v-17.75Z"/>
      <path class="cls-27" d="M431.88,361.83l-13.46-12.16,1.04.58.07,10.85h-3.55v-18.45h.14l13.17,12.11-.77-.34-.07-11.07h3.52v18.48h-.1Z"/>
      <path class="cls-27" d="M452.31,343.36h11.96v3.38h-4.32v14.38h-3.5v-14.38h-4.15v-3.38Z"/>
      <path class="cls-25" d="M143.51,377.7h11.96v3.38h-4.32v14.38h-3.5v-14.38h-4.15v-3.38Z"/>
      <path class="cls-25" d="M181.97,381.17c0-.5.2-.91.59-1.23.39-.32.82-.48,1.27-.48s.87.16,1.24.48c.38.32.57.73.57,1.23s-.19.91-.57,1.22c-.38.32-.79.47-1.24.47s-.87-.16-1.27-.47c-.39-.31-.59-.72-.59-1.22ZM182.04,384.91h3.38v10.54h-3.38v-10.54Z"/>
      <path class="cls-8" d="M212.13,377.7h11.96v3.38h-4.32v14.38h-3.5v-14.38h-4.15v-3.38Z"/>
      <path class="cls-8" d="M250.62,389.93l-6.54-12.23h4.32l4.58,9.21-1.04.07,4.51-9.29h4.32l-6.66,12.23v5.52h-3.5v-5.52Z"/>
      <path class="cls-8" d="M278.63,395.46l8.01-18.45h.19l8.01,18.45h-4.05l-5.11-12.98,2.54-1.74-6.13,14.71h-3.45ZM284.11,389.04h5.33l1.23,2.94h-7.65l1.09-2.94Z"/>
      <path class="cls-8" d="M317.36,388.9c0,.56.17,1.1.51,1.62.34.51.78.93,1.34,1.25.55.32,1.16.48,1.82.48.72,0,1.37-.16,1.93-.48.56-.32,1.01-.74,1.34-1.25.33-.52.49-1.05.49-1.62v-11.19h3.45v11.26c0,1.3-.32,2.46-.97,3.46-.64,1-1.51,1.79-2.61,2.36-1.09.57-2.31.86-3.64.86s-2.52-.29-3.6-.86c-1.09-.57-1.95-1.36-2.59-2.36-.64-1-.97-2.16-.97-3.46v-11.26h3.5v11.19Z"/>
      <path class="cls-7" d="M363.1,393.67c-.21.22-.54.45-.99.69s-.97.45-1.55.64c-.59.19-1.19.35-1.8.47-.61.12-1.19.18-1.74.18-1.45,0-2.75-.21-3.91-.64-1.16-.42-2.15-1.02-2.97-1.78-.82-.76-1.45-1.67-1.88-2.71-.44-1.05-.65-2.19-.65-3.43,0-1.62.24-3.03.73-4.23.49-1.2,1.16-2.2,2-2.99.85-.8,1.82-1.39,2.92-1.77,1.1-.39,2.26-.58,3.46-.58,1.14,0,2.19.13,3.14.37.95.25,1.75.56,2.41.93l-1.13,3.25c-.29-.16-.67-.32-1.16-.48-.48-.16-.97-.29-1.47-.4-.5-.1-.94-.16-1.33-.16-.97,0-1.82.12-2.56.36-.74.24-1.36.6-1.87,1.09s-.89,1.08-1.15,1.8c-.26.72-.39,1.55-.39,2.5,0,.84.15,1.59.44,2.26s.69,1.23,1.22,1.7c.52.47,1.14.82,1.86,1.06s1.51.36,2.38.36c.5,0,.96-.04,1.38-.11.42-.07.77-.19,1.06-.35v-2.15h-3.07v-3.38h6.61v7.5Z"/>
      <path class="cls-25" d="M380.53,395.46v-18.48h.02l9.87,13.99-1.5-.34,9.84-13.65h.05v18.48h-3.5v-10.59l.22,1.81-6.01,8.54h-.05l-6.17-8.54.6-1.66v10.44h-3.38Z"/>
      <path class="cls-35" d="M417.76,377.7h12.11v3.38h-8.61v3.79h7.62v3.38h-7.62v3.83h8.95v3.38h-12.45v-17.75Z"/>
      <path class="cls-25" d="M466.19,396.18l-13.46-12.16,1.04.58.07,10.85h-3.55v-18.45h.14l13.17,12.11-.77-.34-.07-11.07h3.52v18.48h-.1Z"/>
      <path class="cls-18" d="M157.39,430.53l-13.46-12.16,1.04.58.07,10.85h-3.55v-18.45h.14l13.17,12.11-.77-.34-.07-11.07h3.52v18.48h-.1Z"/>
      <path class="cls-30" d="M177.82,412.05h11.96v3.38h-4.32v14.38h-3.5v-14.38h-4.15v-3.38Z"/>
      <path class="cls-30" d="M216.28,415.52c0-.5.2-.91.59-1.23.39-.32.82-.48,1.27-.48s.87.16,1.24.48c.38.32.57.73.57,1.23s-.19.91-.57,1.22c-.38.32-.79.47-1.24.47s-.87-.16-1.27-.47c-.39-.31-.59-.72-.59-1.22ZM216.36,419.26h3.38v10.54h-3.38v-10.54Z"/>
      <path class="cls-25" d="M246.45,412.05h11.96v3.38h-4.32v14.38h-3.5v-14.38h-4.15v-3.38Z"/>
      <path class="cls-35" d="M284.93,424.28l-6.54-12.23h4.32l4.58,9.21-1.04.07,4.51-9.29h4.32l-6.66,12.23v5.52h-3.5v-5.52Z"/>
      <path class="cls-25" d="M312.94,429.8l8.01-18.45h.19l8.01,18.45h-4.05l-5.11-12.98,2.54-1.74-6.13,14.71h-3.45ZM318.42,423.39h5.33l1.23,2.94h-7.65l1.09-2.94Z"/>
      <path class="cls-7" d="M351.67,423.24c0,.56.17,1.1.51,1.62.34.51.78.93,1.34,1.25.55.32,1.16.48,1.82.48.72,0,1.37-.16,1.93-.48.56-.32,1.01-.74,1.34-1.25.33-.52.49-1.05.49-1.62v-11.19h3.45v11.26c0,1.3-.32,2.46-.97,3.46s-1.51,1.79-2.61,2.36c-1.09.57-2.31.86-3.64.86s-2.52-.29-3.6-.86c-1.09-.57-1.95-1.36-2.59-2.36-.64-1-.97-2.16-.97-3.46v-11.26h3.5v11.19Z"/>
      <path class="cls-14" d="M397.41,428.02c-.21.22-.54.45-.99.69s-.97.45-1.55.64c-.59.19-1.19.35-1.8.47-.61.12-1.19.18-1.74.18-1.45,0-2.75-.21-3.91-.64-1.16-.42-2.15-1.02-2.97-1.78-.82-.76-1.45-1.67-1.88-2.71-.44-1.05-.65-2.19-.65-3.43,0-1.62.24-3.03.73-4.23.49-1.2,1.16-2.2,2-2.99.85-.8,1.82-1.39,2.92-1.77,1.1-.39,2.26-.58,3.46-.58,1.14,0,2.19.13,3.14.37.95.25,1.75.56,2.41.93l-1.13,3.25c-.29-.16-.67-.32-1.16-.48-.48-.16-.97-.29-1.47-.4-.5-.1-.94-.16-1.33-.16-.97,0-1.82.12-2.56.36-.74.24-1.36.6-1.87,1.09s-.89,1.08-1.15,1.8c-.26.72-.39,1.55-.39,2.5,0,.84.15,1.59.44,2.26s.69,1.23,1.22,1.7c.52.47,1.14.82,1.86,1.06s1.51.36,2.38.36c.5,0,.96-.04,1.38-.11.42-.07.77-.19,1.06-.35v-2.15h-3.07v-3.38h6.61v7.5Z"/>
      <path class="cls-8" d="M414.84,429.8v-18.48h.02l9.87,13.99-1.5-.34,9.84-13.65h.05v18.48h-3.5v-10.59l.22,1.81-6.01,8.54h-.05l-6.17-8.54.6-1.66v10.44h-3.38Z"/>
      <path class="cls-8" d="M452.07,412.05h12.11v3.38h-8.61v3.79h7.62v3.38h-7.62v3.83h8.95v3.38h-12.45v-17.75Z"/>
      <path class="cls-18" d="M143.27,446.39h12.11v3.38h-8.61v3.79h7.62v3.38h-7.62v3.83h8.95v3.38h-12.45v-17.75Z"/>
      <path class="cls-30" d="M191.7,464.87l-13.46-12.16,1.04.58.07,10.85h-3.55v-18.45h.14l13.17,12.11-.77-.34-.07-11.07h3.52v18.48h-.1Z"/>
      <path class="cls-30" d="M212.13,446.39h11.96v3.38h-4.32v14.38h-3.5v-14.38h-4.15v-3.38Z"/>
      <path class="cls-19" d="M250.59,449.87c0-.5.2-.91.59-1.23.39-.32.82-.48,1.27-.48s.87.16,1.24.48c.38.32.57.73.57,1.23s-.19.91-.57,1.22c-.38.32-.79.47-1.24.47s-.87-.16-1.27-.47c-.39-.31-.59-.72-.59-1.22ZM250.67,453.61h3.38v10.54h-3.38v-10.54Z"/>
      <path class="cls-35" d="M280.76,446.39h11.96v3.38h-4.32v14.38h-3.5v-14.38h-4.15v-3.38Z"/>
      <path class="cls-25" d="M319.24,458.62l-6.54-12.23h4.32l4.58,9.21-1.04.07,4.51-9.29h4.32l-6.66,12.23v5.52h-3.5v-5.52Z"/>
      <path class="cls-7" d="M347.26,464.15l8.01-18.45h.19l8.01,18.45h-4.05l-5.11-12.98,2.54-1.74-6.13,14.71h-3.45ZM352.73,457.73h5.33l1.23,2.94h-7.65l1.09-2.94Z"/>
      <path class="cls-18" d="M385.98,457.59c0,.56.17,1.1.51,1.62.34.51.78.93,1.34,1.25.55.32,1.16.48,1.82.48.72,0,1.37-.16,1.93-.48.56-.32,1.01-.74,1.34-1.25.33-.52.49-1.05.49-1.62v-11.19h3.45v11.26c0,1.3-.32,2.46-.97,3.46s-1.51,1.79-2.61,2.36c-1.09.57-2.31.86-3.64.86s-2.52-.29-3.6-.86c-1.09-.57-1.95-1.36-2.59-2.36s-.97-2.16-.97-3.46v-11.26h3.5v11.19Z"/>
      <path class="cls-18" d="M431.72,462.36c-.21.22-.54.45-.99.69s-.97.45-1.55.64c-.59.19-1.19.35-1.8.47-.61.12-1.19.18-1.74.18-1.45,0-2.75-.21-3.91-.64-1.16-.42-2.15-1.02-2.97-1.78-.82-.76-1.45-1.67-1.88-2.71-.44-1.05-.65-2.19-.65-3.43,0-1.62.24-3.03.73-4.23.49-1.2,1.16-2.2,2-2.99.85-.8,1.82-1.39,2.92-1.77,1.1-.39,2.26-.58,3.46-.58,1.14,0,2.19.13,3.14.37.95.25,1.75.56,2.41.93l-1.13,3.25c-.29-.16-.67-.32-1.16-.48-.48-.16-.97-.29-1.47-.4-.5-.1-.94-.16-1.33-.16-.97,0-1.82.12-2.56.36-.74.24-1.36.6-1.87,1.09s-.89,1.08-1.15,1.8c-.26.72-.39,1.55-.39,2.5,0,.84.15,1.59.44,2.26s.69,1.23,1.22,1.7c.52.47,1.14.82,1.86,1.06s1.51.36,2.38.36c.5,0,.96-.04,1.38-.11.42-.07.77-.19,1.06-.35v-2.15h-3.07v-3.38h6.61v7.5Z"/>
      <path class="cls-2" d="M449.15,464.15v-18.48h.02l9.87,13.99-1.5-.34,9.84-13.65h.05v18.48h-3.5v-10.59l.22,1.81-6.01,8.54h-.05l-6.17-8.54.6-1.66v10.44h-3.38Z"/>
      <path class="cls-2" d="M140.35,498.49v-18.48h.02l9.87,13.99-1.5-.34,9.84-13.65h.05v18.48h-3.5v-10.59l.22,1.81-6.01,8.54h-.05l-6.17-8.54.6-1.66v10.44h-3.38Z"/>
      <path class="cls-25" d="M177.58,480.74h12.11v3.38h-8.61v3.79h7.62v3.38h-7.62v3.83h8.95v3.38h-12.45v-17.75Z"/>
      <path class="cls-2" d="M226.02,499.22l-13.46-12.16,1.04.58.07,10.85h-3.55v-18.45h.14l13.17,12.11-.77-.34-.07-11.07h3.52v18.48h-.1Z"/>
      <path class="cls-2" d="M246.45,480.74h11.96v3.38h-4.32v14.38h-3.5v-14.38h-4.15v-3.38Z"/>
      <path class="cls-35" d="M284.9,484.21c0-.5.2-.91.59-1.23.39-.32.82-.48,1.27-.48s.87.16,1.24.48c.38.32.57.73.57,1.23s-.19.91-.57,1.22c-.38.32-.79.47-1.24.47s-.87-.16-1.27-.47c-.39-.31-.59-.72-.59-1.22ZM284.98,487.95h3.38v10.54h-3.38v-10.54Z"/>
      <path class="cls-25" d="M315.07,480.74h11.96v3.38h-4.32v14.38h-3.5v-14.38h-4.15v-3.38Z"/>
      <path class="cls-2" d="M353.55,492.97l-6.54-12.23h4.32l4.58,9.21-1.04.07,4.51-9.29h4.32l-6.66,12.23v5.52h-3.5v-5.52Z"/>
      <path class="cls-25" d="M381.57,498.49l8.01-18.45h.19l8.01,18.45h-4.05l-5.11-12.98,2.54-1.74-6.13,14.71h-3.45ZM387.04,492.08h5.33l1.23,2.94h-7.65l1.09-2.94Z"/>
      <path class="cls-35" d="M420.29,491.93c0,.56.17,1.1.51,1.62.34.51.78.93,1.34,1.25.55.32,1.16.48,1.82.48.72,0,1.37-.16,1.93-.48.56-.32,1.01-.74,1.34-1.25.33-.52.49-1.05.49-1.62v-11.19h3.45v11.26c0,1.3-.32,2.46-.97,3.46s-1.51,1.79-2.61,2.36c-1.09.57-2.31.86-3.64.86s-2.52-.29-3.6-.86c-1.09-.57-1.95-1.36-2.59-2.36-.64-1-.97-2.16-.97-3.46v-11.26h3.5v11.19Z"/>
      <path class="cls-25" d="M466.04,496.71c-.21.22-.54.45-.99.69s-.97.45-1.55.64c-.59.19-1.19.35-1.8.47-.61.12-1.19.18-1.74.18-1.45,0-2.75-.21-3.91-.64-1.16-.42-2.15-1.02-2.97-1.78-.82-.76-1.45-1.67-1.88-2.71-.44-1.05-.65-2.19-.65-3.43,0-1.62.24-3.03.73-4.23.49-1.2,1.16-2.2,2-2.99.85-.8,1.82-1.39,2.92-1.77,1.1-.39,2.26-.58,3.46-.58,1.14,0,2.19.13,3.14.37.95.25,1.75.56,2.41.93l-1.13,3.25c-.29-.16-.67-.32-1.16-.48-.48-.16-.97-.29-1.47-.4-.5-.1-.94-.16-1.33-.16-.97,0-1.82.12-2.56.36-.74.24-1.36.6-1.87,1.09s-.89,1.08-1.15,1.8c-.26.72-.39,1.55-.39,2.5,0,.84.15,1.59.44,2.26.29.67.69,1.23,1.22,1.7.52.47,1.14.82,1.86,1.06s1.51.36,2.38.36c.5,0,.96-.04,1.38-.11.42-.07.77-.19,1.06-.35v-2.15h-3.07v-3.38h6.61v7.5Z"/>
      <path class="cls-14" d="M157.24,531.05c-.21.22-.54.45-.99.69s-.97.45-1.55.64c-.59.19-1.19.35-1.8.47-.61.12-1.19.18-1.74.18-1.45,0-2.75-.21-3.91-.64-1.16-.42-2.15-1.02-2.97-1.78-.82-.76-1.45-1.67-1.88-2.71-.44-1.05-.65-2.19-.65-3.43,0-1.62.24-3.03.73-4.23.49-1.2,1.16-2.2,2-2.99.85-.8,1.82-1.39,2.92-1.77,1.1-.39,2.26-.58,3.46-.58,1.14,0,2.19.13,3.14.37.95.25,1.75.56,2.41.93l-1.13,3.25c-.29-.16-.67-.32-1.16-.48-.48-.16-.97-.29-1.47-.4-.5-.1-.94-.16-1.33-.16-.97,0-1.82.12-2.56.36-.74.24-1.36.6-1.87,1.09s-.89,1.08-1.15,1.8c-.26.72-.39,1.55-.39,2.5,0,.84.15,1.59.44,2.26s.69,1.23,1.22,1.7c.52.47,1.14.82,1.86,1.06s1.51.36,2.38.36c.5,0,.96-.04,1.38-.11.42-.07.77-.19,1.06-.35v-2.15h-3.07v-3.38h6.61v7.5Z"/>
      <path class="cls-2" d="M174.66,532.84v-18.48h.02l9.87,13.99-1.5-.34,9.84-13.65h.05v18.48h-3.5v-10.59l.22,1.81-6.01,8.54h-.05l-6.17-8.54.6-1.66v10.44h-3.38Z"/>
      <path class="cls-2" d="M211.89,515.09h12.11v3.38h-8.61v3.79h7.62v3.38h-7.62v3.83h8.95v3.38h-12.45v-17.75Z"/>
      <path class="cls-25" d="M260.33,533.56l-13.46-12.16,1.04.58.07,10.85h-3.55v-18.45h.14l13.17,12.11-.77-.34-.07-11.07h3.52v18.48h-.1Z"/>
      <path class="cls-25" d="M280.76,515.09h11.96v3.38h-4.32v14.38h-3.5v-14.38h-4.15v-3.38Z"/>
      <path class="cls-19" d="M319.22,518.56c0-.5.2-.91.59-1.23.39-.32.82-.48,1.27-.48s.87.16,1.24.48c.38.32.57.73.57,1.23s-.19.91-.57,1.22c-.38.32-.79.47-1.24.47s-.87-.16-1.27-.47c-.39-.31-.59-.72-.59-1.22ZM319.29,522.3h3.38v10.54h-3.38v-10.54Z"/>
      <path class="cls-25" d="M349.38,515.09h11.96v3.38h-4.32v14.38h-3.5v-14.38h-4.15v-3.38Z"/>
      <path class="cls-2" d="M387.86,527.31l-6.54-12.23h4.32l4.58,9.21-1.04.07,4.51-9.29h4.32l-6.66,12.23v5.52h-3.5v-5.52Z"/>
      <path class="cls-25" d="M415.88,532.84l8.01-18.45h.19l8.01,18.45h-4.05l-5.11-12.98,2.54-1.74-6.13,14.71h-3.45ZM421.35,526.42h5.33l1.23,2.94h-7.65l1.09-2.94Z"/>
      <path class="cls-2" d="M454.6,526.28c0,.56.17,1.1.51,1.62.34.51.78.93,1.34,1.25.55.32,1.16.48,1.82.48.72,0,1.37-.16,1.93-.48.56-.32,1.01-.74,1.34-1.25.33-.52.49-1.05.49-1.62v-11.19h3.45v11.26c0,1.3-.32,2.46-.97,3.46s-1.51,1.79-2.61,2.36c-1.09.57-2.31.86-3.64.86s-2.52-.29-3.6-.86c-1.09-.57-1.95-1.36-2.59-2.36-.64-1-.97-2.16-.97-3.46v-11.26h3.5v11.19Z"/>
      <path class="cls-25" d="M145.8,560.62c0,.56.17,1.1.51,1.62.34.51.78.93,1.34,1.25.55.32,1.16.48,1.82.48.72,0,1.37-.16,1.93-.48.56-.32,1.01-.74,1.34-1.25.33-.52.49-1.05.49-1.62v-11.19h3.45v11.26c0,1.3-.32,2.46-.97,3.46-.64,1-1.51,1.79-2.61,2.36-1.09.57-2.31.86-3.64.86s-2.52-.29-3.6-.86c-1.09-.57-1.95-1.36-2.59-2.36s-.97-2.16-.97-3.46v-11.26h3.5v11.19Z"/>
      <path class="cls-14" d="M191.55,565.4c-.21.22-.54.45-.99.69s-.97.45-1.55.64c-.59.19-1.19.35-1.8.47-.61.12-1.19.18-1.74.18-1.45,0-2.75-.21-3.91-.64-1.16-.42-2.15-1.02-2.97-1.78-.82-.76-1.45-1.67-1.88-2.71-.44-1.05-.65-2.19-.65-3.43,0-1.62.24-3.03.73-4.23.49-1.2,1.16-2.2,2-2.99.85-.8,1.82-1.39,2.92-1.77,1.1-.39,2.26-.58,3.46-.58,1.14,0,2.19.13,3.14.37.95.25,1.75.56,2.41.93l-1.13,3.25c-.29-.16-.67-.32-1.16-.48-.48-.16-.97-.29-1.47-.4-.5-.1-.94-.16-1.33-.16-.97,0-1.82.12-2.56.36-.74.24-1.36.6-1.87,1.09s-.89,1.08-1.15,1.8c-.26.72-.39,1.55-.39,2.5,0,.84.15,1.59.44,2.26s.69,1.23,1.22,1.7c.52.47,1.14.82,1.86,1.06s1.51.36,2.38.36c.5,0,.96-.04,1.38-.11.42-.07.77-.19,1.06-.35v-2.15h-3.07v-3.38h6.61v7.5Z"/>
      <path class="cls-25" d="M208.97,567.18v-18.48h.02l9.87,13.99-1.5-.34,9.84-13.65h.05v18.48h-3.5v-10.59l.22,1.81-6.01,8.54h-.05l-6.17-8.54.6-1.66v10.44h-3.38Z"/>
      <path class="cls-35" d="M246.2,549.43h12.11v3.38h-8.61v3.79h7.62v3.38h-7.62v3.83h8.95v3.38h-12.45v-17.75Z"/>
      <path class="cls-2" d="M294.64,567.91l-13.46-12.16,1.04.58.07,10.85h-3.55v-18.45h.14l13.17,12.11-.77-.34-.07-11.07h3.52v18.48h-.1Z"/>
      <path class="cls-2" d="M315.07,549.43h11.96v3.38h-4.32v14.38h-3.5v-14.38h-4.15v-3.38Z"/>
      <path class="cls-25" d="M353.53,552.9c0-.5.2-.91.59-1.23.39-.32.82-.48,1.27-.48s.87.16,1.24.48c.38.32.57.73.57,1.23s-.19.91-.57,1.22c-.38.32-.79.47-1.24.47s-.87-.16-1.27-.47c-.39-.31-.59-.72-.59-1.22ZM353.6,556.64h3.38v10.54h-3.38v-10.54Z"/>
      <path class="cls-25" d="M383.69,549.43h11.96v3.38h-4.32v14.38h-3.5v-14.38h-4.15v-3.38Z"/>
      <path class="cls-25" d="M422.17,561.66l-6.54-12.23h4.32l4.58,9.21-1.04.07,4.51-9.29h4.32l-6.66,12.23v5.52h-3.5v-5.52Z"/>
      <path class="cls-25" d="M450.19,567.18l8.01-18.45h.19l8.01,18.45h-4.05l-5.11-12.98,2.54-1.74-6.13,14.71h-3.45ZM455.67,560.77h5.33l1.23,2.94h-7.65l1.09-2.94Z"/>
      <path class="cls-12" d="M141.39,601.53l8.01-18.45h.19l8.01,18.45h-4.05l-5.11-12.98,2.54-1.74-6.13,14.71h-3.45ZM146.87,595.11h5.33l1.23,2.94h-7.65l1.09-2.94Z"/>
      <path class="cls-12" d="M180.11,594.97c0,.56.17,1.1.51,1.62.34.51.78.93,1.34,1.25.55.32,1.16.48,1.82.48.72,0,1.37-.16,1.93-.48.56-.32,1.01-.74,1.34-1.25.33-.52.49-1.05.49-1.62v-11.19h3.45v11.26c0,1.3-.32,2.46-.97,3.46-.64,1-1.51,1.79-2.61,2.36-1.09.57-2.31.86-3.64.86s-2.52-.29-3.6-.86c-1.09-.57-1.95-1.36-2.59-2.36-.64-1-.97-2.16-.97-3.46v-11.26h3.5v11.19Z"/>
      <path class="cls-12" d="M225.86,599.75c-.21.22-.54.45-.99.69s-.97.45-1.55.64c-.59.19-1.19.35-1.8.47-.61.12-1.19.18-1.74.18-1.45,0-2.75-.21-3.91-.64-1.16-.42-2.15-1.02-2.97-1.78-.82-.76-1.45-1.67-1.88-2.71-.44-1.05-.65-2.19-.65-3.43,0-1.62.24-3.03.73-4.23.49-1.2,1.16-2.2,2-2.99.85-.8,1.82-1.39,2.92-1.77,1.1-.39,2.26-.58,3.46-.58,1.14,0,2.19.13,3.14.37.95.25,1.75.56,2.41.93l-1.13,3.25c-.29-.16-.67-.32-1.16-.48-.48-.16-.97-.29-1.47-.4-.5-.1-.94-.16-1.33-.16-.97,0-1.82.12-2.56.36-.74.24-1.36.6-1.87,1.09s-.89,1.08-1.15,1.8c-.26.72-.39,1.55-.39,2.5,0,.84.15,1.59.44,2.26s.69,1.23,1.22,1.7c.52.47,1.14.82,1.86,1.06s1.51.36,2.38.36c.5,0,.96-.04,1.38-.11.42-.07.77-.19,1.06-.35v-2.15h-3.07v-3.38h6.61v7.5Z"/>
      <path class="cls-12" d="M243.28,601.53v-18.48h.02l9.87,13.99-1.5-.34,9.84-13.65h.05v18.48h-3.5v-10.59l.22,1.81-6.01,8.54h-.05l-6.17-8.54.6-1.66v10.44h-3.38Z"/>
      <path class="cls-12" d="M280.51,583.78h12.11v3.38h-8.61v3.79h7.62v3.38h-7.62v3.83h8.95v3.38h-12.45v-17.75Z"/>
      <path class="cls-12" d="M328.95,602.25l-13.46-12.16,1.04.58.07,10.85h-3.55v-18.45h.14l13.17,12.11-.77-.34-.07-11.07h3.52v18.48h-.1Z"/>
      <path class="cls-12" d="M349.38,583.78h11.96v3.38h-4.32v14.38h-3.5v-14.38h-4.15v-3.38Z"/>
      <path class="cls-12" d="M387.84,587.25c0-.5.2-.91.59-1.23.39-.32.82-.48,1.27-.48s.87.16,1.24.48c.38.32.57.73.57,1.23s-.19.91-.57,1.22c-.38.32-.79.47-1.24.47s-.87-.16-1.27-.47c-.39-.31-.59-.72-.59-1.22ZM387.91,590.99h3.38v10.54h-3.38v-10.54Z"/>
      <path class="cls-12" d="M418,583.78h11.96v3.38h-4.32v14.38h-3.5v-14.38h-4.15v-3.38Z"/>
      <path class="cls-12" d="M456.48,596.01l-6.54-12.23h4.32l4.58,9.21-1.04.07,4.51-9.29h4.32l-6.66,12.23v5.52h-3.5v-5.52Z"/>
      <path class="cls-31" d="M88.96,19.2l-13.46-12.16,1.04.58.07,10.85h-3.55V.02h.14l13.17,12.11-.77-.34-.07-11.07h3.52v18.48h-.1Z"/>
      <path class="cls-2" d="M109.39.72h11.96v3.38h-4.32v14.38h-3.5V4.1h-4.15V.72Z"/>
      <path class="cls-31" d="M74.83,35.07h12.11v3.38h-8.61v3.79h7.62v3.38h-7.62v3.83h8.95v3.38h-12.45v-17.75Z"/>
      <path class="cls-2" d="M123.27,53.55l-13.46-12.16,1.04.58.07,10.85h-3.55v-18.45h.14l13.17,12.11-.77-.34-.07-11.07h3.52v18.48h-.1Z"/>
      <path class="cls-31" d="M71.91,87.17v-18.48h.02l9.87,13.99-1.5-.34,9.84-13.65h.05v18.48h-3.5v-10.59l.22,1.81-6.01,8.54h-.05l-6.17-8.54.6-1.66v10.44h-3.38Z"/>
      <path class="cls-2" d="M109.15,69.42h12.11v3.38h-8.61v3.79h7.62v3.38h-7.62v3.83h8.95v3.38h-12.45v-17.75Z"/>
      <path class="cls-31" d="M88.8,119.73c-.21.22-.54.45-.99.69s-.97.45-1.55.64c-.59.19-1.19.35-1.8.47-.61.12-1.19.18-1.74.18-1.45,0-2.75-.21-3.91-.64-1.16-.42-2.15-1.02-2.97-1.78-.82-.76-1.45-1.67-1.88-2.71-.44-1.05-.65-2.19-.65-3.43,0-1.62.24-3.03.73-4.23.49-1.2,1.16-2.2,2-2.99.85-.8,1.82-1.39,2.92-1.77,1.1-.39,2.26-.58,3.46-.58,1.14,0,2.19.13,3.14.37.95.25,1.75.56,2.41.93l-1.13,3.25c-.29-.16-.67-.32-1.16-.48-.48-.16-.97-.29-1.47-.4-.5-.1-.94-.16-1.33-.16-.97,0-1.82.12-2.56.36-.74.24-1.36.6-1.87,1.09s-.89,1.08-1.15,1.8c-.26.72-.39,1.55-.39,2.5,0,.84.15,1.59.44,2.26s.69,1.23,1.22,1.7c.52.47,1.14.82,1.86,1.06s1.51.36,2.38.36c.5,0,.96-.04,1.38-.11.42-.07.77-.19,1.06-.35v-2.15h-3.07v-3.38h6.61v7.5Z"/>
      <path class="cls-2" d="M106.23,121.51v-18.48h.02l9.87,13.99-1.5-.34,9.84-13.65h.05v18.48h-3.5v-10.59l.22,1.81-6.01,8.54h-.05l-6.17-8.54.6-1.66v10.44h-3.38Z"/>
      <path class="cls-31" d="M77.37,149.3c0,.56.17,1.1.51,1.62.34.51.78.93,1.34,1.25.55.32,1.16.48,1.82.48.72,0,1.37-.16,1.93-.48.56-.32,1.01-.74,1.34-1.25.33-.52.49-1.05.49-1.62v-11.19h3.45v11.26c0,1.3-.32,2.46-.97,3.46-.64,1-1.51,1.79-2.61,2.36-1.09.57-2.31.86-3.64.86s-2.52-.29-3.6-.86c-1.09-.57-1.95-1.36-2.59-2.36s-.97-2.16-.97-3.46v-11.26h3.5v11.19Z"/>
      <path class="cls-14" d="M123.11,154.08c-.21.22-.54.45-.99.69s-.97.45-1.55.64c-.59.19-1.19.35-1.8.47-.61.12-1.19.18-1.74.18-1.45,0-2.75-.21-3.91-.64-1.16-.42-2.15-1.02-2.97-1.78-.82-.76-1.45-1.67-1.88-2.71-.44-1.05-.65-2.19-.65-3.43,0-1.62.24-3.03.73-4.23.49-1.2,1.16-2.2,2-2.99.85-.8,1.82-1.39,2.92-1.77,1.1-.39,2.26-.58,3.46-.58,1.14,0,2.19.13,3.14.37.95.25,1.75.56,2.41.93l-1.13,3.25c-.29-.16-.67-.32-1.16-.48-.48-.16-.97-.29-1.47-.4-.5-.1-.94-.16-1.33-.16-.97,0-1.82.12-2.56.36-.74.24-1.36.6-1.87,1.09s-.89,1.08-1.15,1.8c-.26.72-.39,1.55-.39,2.5,0,.84.15,1.59.44,2.26s.69,1.23,1.22,1.7c.52.47,1.14.82,1.86,1.06s1.51.36,2.38.36c.5,0,.96-.04,1.38-.11.42-.07.77-.19,1.06-.35v-2.15h-3.07v-3.38h6.61v7.5Z"/>
      <path class="cls-31" d="M72.95,190.21l8.01-18.45h.19l8.01,18.45h-4.05l-5.11-12.98,2.54-1.74-6.13,14.71h-3.45ZM78.43,183.79h5.33l1.23,2.94h-7.65l1.09-2.94Z"/>
      <path class="cls-2" d="M111.68,183.64c0,.56.17,1.1.51,1.62.34.51.78.93,1.34,1.25.55.32,1.16.48,1.82.48.72,0,1.37-.16,1.93-.48.56-.32,1.01-.74,1.34-1.25.33-.52.49-1.05.49-1.62v-11.19h3.45v11.26c0,1.3-.32,2.46-.97,3.46s-1.51,1.79-2.61,2.36c-1.09.57-2.31.86-3.64.86s-2.52-.29-3.6-.86c-1.09-.57-1.95-1.36-2.59-2.36s-.97-2.16-.97-3.46v-11.26h3.5v11.19Z"/>
      <path class="cls-31" d="M79.25,219.03l-6.54-12.23h4.32l4.58,9.21-1.04.07,4.51-9.29h4.32l-6.66,12.23v5.52h-3.5v-5.52Z"/>
      <path class="cls-2" d="M107.26,224.55l8.01-18.45h.19l8.01,18.45h-4.05l-5.11-12.98,2.54-1.74-6.13,14.71h-3.45ZM112.74,218.13h5.33l1.23,2.94h-7.65l1.09-2.94Z"/>
      <path class="cls-1" d="M75.08,241.14h11.96v3.38h-4.32v14.38h-3.5v-14.38h-4.15v-3.38Z"/>
      <path class="cls-15" d="M113.56,253.37l-6.54-12.23h4.32l4.58,9.21-1.04.07,4.51-9.29h4.32l-6.66,12.23v5.52h-3.5v-5.52Z"/>
      <path class="cls-10" d="M79.22,278.96c0-.5.2-.91.59-1.23.39-.32.82-.48,1.27-.48s.87.16,1.24.48c.38.32.57.73.57,1.23s-.19.91-.57,1.22c-.38.32-.79.47-1.24.47s-.87-.16-1.27-.47c-.39-.31-.59-.72-.59-1.22ZM79.3,282.7h3.38v10.54h-3.38v-10.54Z"/>
      <path class="cls-26" d="M109.39,275.49h11.96v3.38h-4.32v14.38h-3.5v-14.38h-4.15v-3.38Z"/>
      <path class="cls-24" d="M75.08,309.84h11.96v3.38h-4.32v14.38h-3.5v-14.38h-4.15v-3.38Z"/>
      <path class="cls-21" d="M113.54,313.31c0-.5.2-.91.59-1.23.39-.32.82-.48,1.27-.48s.87.16,1.24.48c.38.32.57.73.57,1.23s-.19.91-.57,1.22c-.38.32-.79.47-1.24.47s-.87-.16-1.27-.47c-.39-.31-.59-.72-.59-1.22ZM113.61,317.05h3.38v10.54h-3.38v-10.54Z"/>
      <path class="cls-27" d="M88.96,361.83l-13.46-12.16,1.04.58.07,10.85h-3.55v-18.45h.14l13.17,12.11-.77-.34-.07-11.07h3.52v18.48h-.1Z"/>
      <path class="cls-27" d="M109.39,343.36h11.96v3.38h-4.32v14.38h-3.5v-14.38h-4.15v-3.38Z"/>
      <path class="cls-31" d="M74.83,377.7h12.11v3.38h-8.61v3.79h7.62v3.38h-7.62v3.83h8.95v3.38h-12.45v-17.75Z"/>
      <path class="cls-2" d="M123.27,396.18l-13.46-12.16,1.04.58.07,10.85h-3.55v-18.45h.14l13.17,12.11-.77-.34-.07-11.07h3.52v18.48h-.1Z"/>
      <path class="cls-31" d="M71.91,429.8v-18.48h.02l9.87,13.99-1.5-.34,9.84-13.65h.05v18.48h-3.5v-10.59l.22,1.81-6.01,8.54h-.05l-6.17-8.54.6-1.66v10.44h-3.38Z"/>
      <path class="cls-2" d="M109.15,412.05h12.11v3.38h-8.61v3.79h7.62v3.38h-7.62v3.83h8.95v3.38h-12.45v-17.75Z"/>
      <path class="cls-14" d="M88.8,462.36c-.21.22-.54.45-.99.69s-.97.45-1.55.64c-.59.19-1.19.35-1.8.47-.61.12-1.19.18-1.74.18-1.45,0-2.75-.21-3.91-.64-1.16-.42-2.15-1.02-2.97-1.78-.82-.76-1.45-1.67-1.88-2.71-.44-1.05-.65-2.19-.65-3.43,0-1.62.24-3.03.73-4.23.49-1.2,1.16-2.2,2-2.99.85-.8,1.82-1.39,2.92-1.77,1.1-.39,2.26-.58,3.46-.58,1.14,0,2.19.13,3.14.37.95.25,1.75.56,2.41.93l-1.13,3.25c-.29-.16-.67-.32-1.16-.48-.48-.16-.97-.29-1.47-.4-.5-.1-.94-.16-1.33-.16-.97,0-1.82.12-2.56.36-.74.24-1.36.6-1.87,1.09s-.89,1.08-1.15,1.8c-.26.72-.39,1.55-.39,2.5,0,.84.15,1.59.44,2.26s.69,1.23,1.22,1.7c.52.47,1.14.82,1.86,1.06s1.51.36,2.38.36c.5,0,.96-.04,1.38-.11.42-.07.77-.19,1.06-.35v-2.15h-3.07v-3.38h6.61v7.5Z"/>
      <path class="cls-2" d="M106.23,464.15v-18.48h.02l9.87,13.99-1.5-.34,9.84-13.65h.05v18.48h-3.5v-10.59l.22,1.81-6.01,8.54h-.05l-6.17-8.54.6-1.66v10.44h-3.38Z"/>
      <path class="cls-31" d="M77.37,491.93c0,.56.17,1.1.51,1.62.34.51.78.93,1.34,1.25.55.32,1.16.48,1.82.48.72,0,1.37-.16,1.93-.48.56-.32,1.01-.74,1.34-1.25.33-.52.49-1.05.49-1.62v-11.19h3.45v11.26c0,1.3-.32,2.46-.97,3.46s-1.51,1.79-2.61,2.36c-1.09.57-2.31.86-3.64.86s-2.52-.29-3.6-.86c-1.09-.57-1.95-1.36-2.59-2.36-.64-1-.97-2.16-.97-3.46v-11.26h3.5v11.19Z"/>
      <path class="cls-2" d="M123.11,496.71c-.21.22-.54.45-.99.69s-.97.45-1.55.64c-.59.19-1.19.35-1.8.47-.61.12-1.19.18-1.74.18-1.45,0-2.75-.21-3.91-.64-1.16-.42-2.15-1.02-2.97-1.78-.82-.76-1.45-1.67-1.88-2.71-.44-1.05-.65-2.19-.65-3.43,0-1.62.24-3.03.73-4.23.49-1.2,1.16-2.2,2-2.99.85-.8,1.82-1.39,2.92-1.77,1.1-.39,2.26-.58,3.46-.58,1.14,0,2.19.13,3.14.37.95.25,1.75.56,2.41.93l-1.13,3.25c-.29-.16-.67-.32-1.16-.48-.48-.16-.97-.29-1.47-.4-.5-.1-.94-.16-1.33-.16-.97,0-1.82.12-2.56.36-.74.24-1.36.6-1.87,1.09s-.89,1.08-1.15,1.8c-.26.72-.39,1.55-.39,2.5,0,.84.15,1.59.44,2.26s.69,1.23,1.22,1.7c.52.47,1.14.82,1.86,1.06s1.51.36,2.38.36c.5,0,.96-.04,1.38-.11.42-.07.77-.19,1.06-.35v-2.15h-3.07v-3.38h6.61v7.5Z"/>
      <path class="cls-31" d="M72.95,532.84l8.01-18.45h.19l8.01,18.45h-4.05l-5.11-12.98,2.54-1.74-6.13,14.71h-3.45ZM78.43,526.42h5.33l1.23,2.94h-7.65l1.09-2.94Z"/>
      <path class="cls-2" d="M111.68,526.28c0,.56.17,1.1.51,1.62.34.51.78.93,1.34,1.25.55.32,1.16.48,1.82.48.72,0,1.37-.16,1.93-.48.56-.32,1.01-.74,1.34-1.25.33-.52.49-1.05.49-1.62v-11.19h3.45v11.26c0,1.3-.32,2.46-.97,3.46-.64,1-1.51,1.79-2.61,2.36-1.09.57-2.31.86-3.64.86s-2.52-.29-3.6-.86c-1.09-.57-1.95-1.36-2.59-2.36s-.97-2.16-.97-3.46v-11.26h3.5v11.19Z"/>
      <path class="cls-31" d="M79.25,561.66l-6.54-12.23h4.32l4.58,9.21-1.04.07,4.51-9.29h4.32l-6.66,12.23v5.52h-3.5v-5.52Z"/>
      <path class="cls-2" d="M107.26,567.18l8.01-18.45h.19l8.01,18.45h-4.05l-5.11-12.98,2.54-1.74-6.13,14.71h-3.45ZM112.74,560.77h5.33l1.23,2.94h-7.65l1.09-2.94Z"/>
      <path class="cls-1" d="M75.08,583.78h11.96v3.38h-4.32v14.38h-3.5v-14.38h-4.15v-3.38Z"/>
      <path class="cls-28" d="M37.53,52.74v-18.48h.02l9.87,13.99-1.5-.34,9.84-13.65h.05v18.48h-3.5v-10.59l.22,1.81-6.01,8.54h-.05l-6.17-8.54.6-1.66v10.44h-3.38Z"/>
      <path class="cls-28" d="M54.42,85.3c-.21.22-.54.45-.99.69s-.97.45-1.55.64c-.59.19-1.19.35-1.8.47-.61.12-1.19.18-1.74.18-1.45,0-2.75-.21-3.91-.64-1.16-.42-2.15-1.02-2.97-1.78-.82-.76-1.45-1.67-1.88-2.71-.44-1.05-.65-2.19-.65-3.43,0-1.62.24-3.03.73-4.23.49-1.2,1.16-2.2,2-2.99.85-.8,1.82-1.39,2.92-1.77,1.1-.39,2.26-.58,3.46-.58,1.14,0,2.19.13,3.14.37.95.25,1.75.56,2.41.93l-1.13,3.25c-.29-.16-.67-.32-1.16-.48-.48-.16-.97-.29-1.47-.4-.5-.1-.94-.16-1.33-.16-.97,0-1.82.12-2.56.36-.74.24-1.36.6-1.87,1.09s-.89,1.08-1.15,1.8c-.26.72-.39,1.55-.39,2.5,0,.84.15,1.59.44,2.26.29.67.69,1.23,1.22,1.7.52.47,1.14.82,1.86,1.06s1.51.36,2.38.36c.5,0,.96-.04,1.38-.11.42-.07.77-.19,1.06-.35v-2.15h-3.07v-3.38h6.61v7.5Z"/>
      <path class="cls-28" d="M42.98,114.87c0,.56.17,1.1.51,1.62.34.51.78.93,1.34,1.25.55.32,1.16.48,1.82.48.72,0,1.37-.16,1.93-.48.56-.32,1.01-.74,1.34-1.25.33-.52.49-1.05.49-1.62v-11.19h3.45v11.26c0,1.3-.32,2.46-.97,3.46s-1.51,1.79-2.61,2.36c-1.09.57-2.31.86-3.64.86s-2.52-.29-3.6-.86c-1.09-.57-1.95-1.36-2.59-2.36-.64-1-.97-2.16-.97-3.46v-11.26h3.5v11.19Z"/>
      <path class="cls-28" d="M38.57,155.78l8.01-18.45h.19l8.01,18.45h-4.05l-5.11-12.98,2.54-1.74-6.13,14.71h-3.45ZM44.05,149.36h5.33l1.23,2.94h-7.65l1.09-2.94Z"/>
      <path class="cls-28" d="M44.87,184.6l-6.54-12.23h4.32l4.58,9.21-1.04.07,4.51-9.29h4.32l-6.66,12.23v5.52h-3.5v-5.52Z"/>
      <path class="cls-22" d="M40.69,206.71h11.96v3.38h-4.32v14.38h-3.5v-14.38h-4.15v-3.38Z"/>
      <path class="cls-17" d="M44.84,244.53c0-.5.2-.91.59-1.23.39-.32.82-.48,1.27-.48s.87.16,1.24.48c.38.32.57.73.57,1.23s-.19.91-.57,1.22c-.38.32-.79.47-1.24.47s-.87-.16-1.27-.47c-.39-.31-.59-.72-.59-1.22ZM44.92,248.27h3.38v10.54h-3.38v-10.54Z"/>
      <path class="cls-16" d="M40.69,275.4h11.96v3.38h-4.32v14.38h-3.5v-14.38h-4.15v-3.38Z"/>
      <path class="cls-16" d="M54.58,327.4l-13.46-12.16,1.04.58.07,10.85h-3.55v-18.45h.14l13.17,12.11-.77-.34-.07-11.07h3.52v18.48h-.1Z"/>
      <path class="cls-28" d="M40.45,343.27h12.11v3.38h-8.61v3.79h7.62v3.38h-7.62v3.83h8.95v3.38h-12.45v-17.75Z"/>
      <path class="cls-28" d="M37.53,395.37v-18.48h.02l9.87,13.99-1.5-.34,9.84-13.65h.05v18.48h-3.5v-10.59l.22,1.81-6.01,8.54h-.05l-6.17-8.54.6-1.66v10.44h-3.38Z"/>
      <path class="cls-9" d="M54.42,427.93c-.21.22-.54.45-.99.69s-.97.45-1.55.64c-.59.19-1.19.35-1.8.47-.61.12-1.19.18-1.74.18-1.45,0-2.75-.21-3.91-.64-1.16-.42-2.15-1.02-2.97-1.78-.82-.76-1.45-1.67-1.88-2.71-.44-1.05-.65-2.19-.65-3.43,0-1.62.24-3.03.73-4.23.49-1.2,1.16-2.2,2-2.99.85-.8,1.82-1.39,2.92-1.77,1.1-.39,2.26-.58,3.46-.58,1.14,0,2.19.13,3.14.37.95.25,1.75.56,2.41.93l-1.13,3.25c-.29-.16-.67-.32-1.16-.48-.48-.16-.97-.29-1.47-.4-.5-.1-.94-.16-1.33-.16-.97,0-1.82.12-2.56.36-.74.24-1.36.6-1.87,1.09s-.89,1.08-1.15,1.8c-.26.72-.39,1.55-.39,2.5,0,.84.15,1.59.44,2.26s.69,1.23,1.22,1.7c.52.47,1.14.82,1.86,1.06s1.51.36,2.38.36c.5,0,.96-.04,1.38-.11.42-.07.77-.19,1.06-.35v-2.15h-3.07v-3.38h6.61v7.5Z"/>
      <path class="cls-28" d="M42.98,457.5c0,.56.17,1.1.51,1.62.34.51.78.93,1.34,1.25.55.32,1.16.48,1.82.48.72,0,1.37-.16,1.93-.48.56-.32,1.01-.74,1.34-1.25.33-.52.49-1.05.49-1.62v-11.19h3.45v11.26c0,1.3-.32,2.46-.97,3.46s-1.51,1.79-2.61,2.36c-1.09.57-2.31.86-3.64.86s-2.52-.29-3.6-.86c-1.09-.57-1.95-1.36-2.59-2.36-.64-1-.97-2.16-.97-3.46v-11.26h3.5v11.19Z"/>
      <path class="cls-28" d="M38.57,498.41l8.01-18.45h.19l8.01,18.45h-4.05l-5.11-12.98,2.54-1.74-6.13,14.71h-3.45ZM44.05,491.99h5.33l1.23,2.94h-7.65l1.09-2.94Z"/>
      <path class="cls-28" d="M44.87,527.23l-6.54-12.23h4.32l4.58,9.21-1.04.07,4.51-9.29h4.32l-6.66,12.23v5.52h-3.5v-5.52Z"/>
      <path class="cls-5" d="M5.45,80.76c0,.56.17,1.1.51,1.62.34.51.78.93,1.34,1.25.55.32,1.16.48,1.82.48.72,0,1.37-.16,1.93-.48.56-.32,1.01-.74,1.34-1.25.33-.52.49-1.05.49-1.62v-11.19h3.45v11.26c0,1.3-.32,2.46-.97,3.46-.64,1-1.51,1.79-2.61,2.36-1.09.57-2.31.86-3.64.86s-2.52-.29-3.6-.86c-1.09-.57-1.95-1.36-2.59-2.36s-.97-2.16-.97-3.46v-11.26h3.5v11.19Z"/>
      <path class="cls-5" d="M1.04,121.67l8.01-18.45h.19l8.01,18.45h-4.05l-5.11-12.98,2.54-1.74-6.13,14.71H1.04ZM6.51,115.25h5.33l1.23,2.94h-7.65l1.09-2.94Z"/>
      <path class="cls-5" d="M7.33,150.49l-6.54-12.23h4.32l4.58,9.21-1.04.07,4.51-9.29h4.32l-6.66,12.23v5.52h-3.5v-5.52Z"/>
      <path class="cls-20" d="M3.16,172.6h11.96v3.38h-4.32v14.38h-3.5v-14.38H3.16v-3.38Z"/>
      <path class="cls-32" d="M7.31,210.42c0-.5.2-.91.59-1.23.39-.32.82-.48,1.27-.48s.87.16,1.24.48c.38.32.57.73.57,1.23s-.19.91-.57,1.22c-.38.32-.79.47-1.24.47s-.87-.16-1.27-.47c-.39-.31-.59-.72-.59-1.22ZM7.38,214.16h3.38v10.54h-3.38v-10.54Z"/>
      <path class="cls-29" d="M3.16,241.3h11.96v3.38h-4.32v14.38h-3.5v-14.38H3.16v-3.38Z"/>
      <path class="cls-29" d="M17.04,293.29l-13.46-12.16,1.04.58.07,10.85H1.15v-18.45h.14l13.17,12.11-.77-.34-.07-11.07h3.52v18.48h-.1Z"/>
      <path class="cls-5" d="M2.92,309.16h12.11v3.38H6.42v3.79h7.62v3.38h-7.62v3.83h8.95v3.38H2.92v-17.75Z"/>
      <path class="cls-5" d="M0,361.26v-18.48h.02l9.87,13.99-1.5-.34,9.84-13.65h.05v18.48h-3.5v-10.59l.22,1.81-6.01,8.54h-.05l-6.17-8.54.6-1.66v10.44H0Z"/>
      <path class="cls-11" d="M16.89,393.82c-.21.22-.54.45-.99.69s-.97.45-1.55.64c-.59.19-1.19.35-1.8.47-.61.12-1.19.18-1.74.18-1.45,0-2.75-.21-3.91-.64-1.16-.42-2.15-1.02-2.97-1.78-.82-.76-1.45-1.67-1.88-2.71-.44-1.05-.65-2.19-.65-3.43,0-1.62.24-3.03.73-4.23.49-1.2,1.16-2.2,2-2.99.85-.8,1.82-1.39,2.92-1.77,1.1-.39,2.26-.58,3.46-.58,1.14,0,2.19.13,3.14.37.95.25,1.75.56,2.41.93l-1.13,3.25c-.29-.16-.67-.32-1.16-.48-.48-.16-.97-.29-1.47-.4-.5-.1-.94-.16-1.33-.16-.97,0-1.82.12-2.56.36-.74.24-1.36.6-1.87,1.09s-.89,1.08-1.15,1.8c-.26.72-.39,1.55-.39,2.5,0,.84.15,1.59.44,2.26s.69,1.23,1.22,1.7c.52.47,1.14.82,1.86,1.06s1.51.36,2.38.36c.5,0,.96-.04,1.38-.11.42-.07.77-.19,1.06-.35v-2.15h-3.07v-3.38h6.61v7.5Z"/>
      <path class="cls-5" d="M5.45,423.39c0,.56.17,1.1.51,1.62.34.51.78.93,1.34,1.25.55.32,1.16.48,1.82.48.72,0,1.37-.16,1.93-.48.56-.32,1.01-.74,1.34-1.25.33-.52.49-1.05.49-1.62v-11.19h3.45v11.26c0,1.3-.32,2.46-.97,3.46s-1.51,1.79-2.61,2.36c-1.09.57-2.31.86-3.64.86s-2.52-.29-3.6-.86c-1.09-.57-1.95-1.36-2.59-2.36-.64-1-.97-2.16-.97-3.46v-11.26h3.5v11.19Z"/>
      <path class="cls-5" d="M1.04,464.3l8.01-18.45h.19l8.01,18.45h-4.05l-5.11-12.98,2.54-1.74-6.13,14.71H1.04ZM6.51,457.88h5.33l1.23,2.94h-7.65l1.09-2.94Z"/>
      <path class="cls-5" d="M7.33,493.12l-6.54-12.23h4.32l4.58,9.21-1.04.07,4.51-9.29h4.32l-6.66,12.23v5.52h-3.5v-5.52Z"/>
      <path class="cls-22" d="M40.69,549.35h11.96v3.38h-4.32v14.38h-3.5v-14.38h-4.15v-3.38Z"/>
      <path class="cls-15" d="M113.56,596.01l-6.54-12.23h4.32l4.58,9.21-1.04.07,4.51-9.29h4.32l-6.66,12.23v5.52h-3.5v-5.52Z"/>
    </g>
  </g>
</svg>