<?xml version="1.0" encoding="UTF-8"?>
<svg id="Layer_2" data-name="Layer 2" xmlns="http://www.w3.org/2000/svg" viewBox="0 0 837.86 184.92">
  <defs>
    <style>
      .cls-1 {
        font-family: JosefinSansRoman-Bold, 'Josefin Sans';
        font-size: 32px;
        font-variation-settings: 'wght' 700;
        font-weight: 700;
      }

      .cls-2 {
        letter-spacing: .31em;
      }

      .cls-2, .cls-3, .cls-4 {
        fill: #ee3097;
      }

      .cls-3, .cls-5, .cls-6 {
        stroke-width: 0px;
      }

      .cls-4, .cls-7 {
        letter-spacing: .33em;
      }

      .cls-5 {
        fill: #021ca2;
      }

      .cls-6 {
        fill: #21f5f5;
      }

      .cls-7, .cls-8 {
        fill: #c67af0;
      }

      .cls-8 {
        letter-spacing: .27em;
      }
    </style>
  </defs>
  <g id="Layer_1-2" data-name="Layer 1">
    <g>
      <g>
        <rect class="cls-5" x="441.66" width="192.85" height="122.5"/>
        <ellipse class="cls-3" cx="667.57" cy="25.58" rx="10.61" ry="9.94"/>
        <path class="cls-6" d="M657.86,51.04v71.45h18.77V51.04h-18.77Z"/>
        <path class="cls-6" d="M693.74,15.7v14.02h22.9v77.09h14.52V29.71h17.52l5.98-14.02h-60.91Z"/>
        <path class="cls-6" d="M41.3,11.94h-.88L0,106.8h14.39l8.85-21.52,5.07-12.26,11.86-28.78,11.42,28.78-5.22,12.26h10.07l8.51,21.52h16.64L41.3,11.94Z"/>
        <path class="cls-6" d="M107.75,74.02c0,3.59.94,6.87,2.81,9.83,1.88,2.96,4.36,5.36,7.45,7.2,3.09,1.84,6.55,2.75,10.39,2.75s7.59-.92,10.76-2.75c3.17-1.83,5.69-4.23,7.57-7.2,1.88-2.96,2.81-6.24,2.81-9.83V15.71h14.27v58.57c0,6.68-1.59,12.54-4.76,17.58-3.17,5.05-7.45,8.97-12.83,11.77-5.38,2.8-11.33,4.19-17.83,4.19s-12.43-1.4-17.77-4.19c-5.34-2.8-9.6-6.72-12.76-11.77-3.17-5.05-4.76-10.91-4.76-17.58V15.71h14.64v58.31Z"/>
        <path class="cls-3" d="M241.77,60.87l-6.04,14.14h9.42v15.14c-1.91,1.09-4.22,1.88-6.88,2.38-2.66.5-5.41.75-8.26.75-4.91,0-9.42-.72-13.52-2.19-4.1-1.44-7.57-3.57-10.45-6.32-2.88-2.75-5.16-6.04-6.82-9.89-1.66-3.82-2.5-8.13-2.5-12.89,0-5.07.78-9.64,2.32-13.7,1.53-4.04,3.79-7.48,6.69-10.32,2.91-2.82,6.48-4.97,10.64-6.44,4.19-1.44,8.85-2.19,14.02-2.19,2.16,0,4.54.28,7.13.81,2.6.56,5.1,1.22,7.57,2,2.47.81,4.47,1.69,6.07,2.69l4.88-13.52c-3.41-1.91-7.48-3.5-12.2-4.76-4.72-1.25-9.82-1.88-15.33-1.88-6.26,0-12.2,1.06-17.83,3.13-5.63,2.1-10.57,5.19-14.89,9.32-4.29,4.13-7.73,9.23-10.26,15.27-2.53,6.07-3.82,13.01-3.82,20.84,0,6.51,1.13,12.45,3.38,17.83,2.25,5.38,5.47,10.07,9.64,14.02,4.19,3.97,9.2,7.07,15.08,9.32,5.88,2.25,12.55,3.38,19.96,3.38,2.6,0,5.38-.28,8.38-.88,3-.56,5.94-1.31,8.82-2.19,2.88-.88,5.41-1.88,7.63-3,2.22-1.13,3.97-2.22,5.32-3.32v-37.54h-18.15Z"/>
        <polygon class="cls-6" points="373.92 12.44 373.92 106.8 359.41 106.8 359.41 53.99 327.37 99.42 327.12 99.42 296.08 56.21 296.08 106.8 281.94 106.8 281.94 12.44 282.07 12.44 327.53 76.8 373.67 12.44 373.92 12.44"/>
        <path class="cls-6" d="M398.95,15.71h60.44v14.02h-45.8v24.28h40.8v14.01h-40.8v24.78h47.55v14.02h-62.19V15.71Z"/>
        <polygon class="cls-6" points="561.76 15.7 561.76 110.05 561.38 110.05 495.81 46.48 496.06 106.8 481.29 106.8 481.29 12.57 482.04 12.57 547.49 77.17 547.24 15.7 561.76 15.7"/>
        <path class="cls-6" d="M580.4,15.7v14.02h22.9v77.09h14.52V29.71h17.52l5.98-14.02h-60.91Z"/>
        <polygon class="cls-6" points="837.86 15.7 803.7 77.14 803.7 106.8 789.18 106.8 789.18 77.14 765.59 34.06 773.38 15.7 773.41 15.7 796.88 60.53 819.96 15.7 837.86 15.7"/>
      </g>
      <text class="cls-1" transform="translate(199.59 177.47)"><tspan class="cls-7" x="0" y="0">WE S</tspan><tspan class="cls-8" x="125.34" y="0">T</tspan><tspan class="cls-7" x="152.73" y="0">AND </tspan><tspan class="cls-4" x="279.61" y="0">G</tspan><tspan class="cls-2" x="314.56" y="0">U</tspan><tspan class="cls-4" x="348.67" y="0">ARD</tspan></text>
      <ellipse class="cls-3" cx="667.57" cy="166.83" rx="5.57" ry="5.22"/>
      <ellipse class="cls-3" cx="167.16" cy="166.83" rx="5.57" ry="5.22"/>
    </g>
  </g>
</svg>