<?xml version="1.0" encoding="UTF-8"?>
<svg id="Layer_2" data-name="Layer 2" xmlns="http://www.w3.org/2000/svg" viewBox="0 0 837.86 277.66">
  <defs>
    <style>
      .cls-1 {
        fill: #ee3097;
      }

      .cls-1, .cls-2, .cls-3 {
        stroke-width: 0px;
      }

      .cls-2 {
        fill: #021ca2;
      }

      .cls-3 {
        fill: #21f5f5;
      }
    </style>
  </defs>
  <g id="Layer_1-2" data-name="Layer 1">
    <g>
      <rect class="cls-2" x="440.88" y="40.77" width="192.85" height="192.85"/>
      <ellipse class="cls-1" cx="667.57" cy="103.16" rx="10.61" ry="9.94"/>
      <path class="cls-3" d="M657.86,258.89h-240.08v-58.94h-18.77v77.71h277.63v-149.04h-18.77v130.27ZM399,0v77.65h18.77V18.77h240.08v58.88h18.77V0h-277.63Z"/>
      <path class="cls-3" d="M693.74,93.27v14.02h22.9v77.09h14.52v-77.09h17.52l5.98-14.02h-60.91Z"/>
      <path class="cls-3" d="M41.3,89.52h-.88L0,184.37h14.39l8.85-21.52,5.07-12.26,11.86-28.78,11.42,28.78-5.22,12.26h10.07l8.51,21.52h16.64l-40.3-94.86Z"/>
      <path class="cls-3" d="M107.75,151.6c0,3.59.94,6.87,2.81,9.83,1.88,2.96,4.36,5.36,7.45,7.2,3.09,1.84,6.55,2.75,10.39,2.75s7.59-.92,10.76-2.75c3.17-1.83,5.69-4.23,7.57-7.2,1.88-2.96,2.81-6.24,2.81-9.83v-58.31h14.27v58.57c0,6.68-1.59,12.54-4.76,17.58-3.17,5.05-7.45,8.97-12.83,11.77-5.38,2.8-11.33,4.19-17.83,4.19s-12.43-1.4-17.77-4.19c-5.34-2.8-9.6-6.72-12.76-11.77-3.17-5.05-4.76-10.91-4.76-17.58v-58.57h14.64v58.31Z"/>
      <path class="cls-1" d="M241.77,138.45l-6.04,14.14h9.42v15.14c-1.91,1.09-4.22,1.88-6.88,2.38-2.66.5-5.41.75-8.26.75-4.91,0-9.42-.72-13.52-2.19-4.1-1.44-7.57-3.57-10.45-6.32-2.88-2.75-5.16-6.04-6.82-9.89-1.66-3.82-2.5-8.13-2.5-12.89,0-5.07.78-9.64,2.32-13.7,1.53-4.04,3.79-7.48,6.69-10.32,2.91-2.82,6.48-4.97,10.64-6.44,4.19-1.44,8.85-2.19,14.02-2.19,2.16,0,4.54.28,7.13.81,2.6.56,5.1,1.22,7.57,2,2.47.81,4.47,1.69,6.07,2.69l4.88-13.52c-3.41-1.91-7.48-3.5-12.2-4.76-4.72-1.25-9.82-1.88-15.33-1.88-6.26,0-12.2,1.06-17.83,3.13-5.63,2.1-10.57,5.19-14.89,9.32-4.29,4.13-7.73,9.23-10.26,15.27-2.53,6.07-3.82,13.01-3.82,20.84,0,6.51,1.13,12.45,3.38,17.83,2.25,5.38,5.47,10.07,9.64,14.02,4.19,3.97,9.2,7.07,15.08,9.32,5.88,2.25,12.55,3.38,19.96,3.38,2.6,0,5.38-.28,8.38-.88,3-.56,5.94-1.31,8.82-2.19,2.88-.88,5.41-1.88,7.63-3,2.22-1.13,3.97-2.22,5.32-3.32v-37.54h-18.15Z"/>
      <polygon class="cls-3" points="373.92 90.02 373.92 184.37 359.41 184.37 359.41 131.56 327.37 176.99 327.12 176.99 296.08 133.78 296.08 184.37 281.94 184.37 281.94 90.02 282.07 90.02 327.53 154.37 373.67 90.02 373.92 90.02"/>
      <path class="cls-3" d="M398.95,93.28h60.44v14.02h-45.8v24.28h40.8v14.01h-40.8v24.78h47.55v14.02h-62.19v-91.1Z"/>
      <polygon class="cls-3" points="561.76 93.27 561.76 187.63 561.38 187.63 495.81 124.05 496.06 184.37 481.29 184.37 481.29 90.14 482.04 90.14 547.49 154.74 547.24 93.27 561.76 93.27"/>
      <path class="cls-3" d="M580.4,93.27v14.02h22.9v77.09h14.52v-77.09h17.52l5.98-14.02h-60.91Z"/>
      <polygon class="cls-3" points="837.86 93.27 803.7 154.71 803.7 184.37 789.18 184.37 789.18 154.71 765.59 111.63 773.38 93.27 773.41 93.27 796.88 138.1 819.96 93.27 837.86 93.27"/>
    </g>
  </g>
</svg>